<?xml version="1.0" encoding="UTF-8"?>
<svg id="_レイヤー_2" data-name="レイヤー 2" xmlns="http://www.w3.org/2000/svg" viewBox="0 0 318.48 182.58">
  <defs>
    <style>
      .cls-1 {
        fill: #fff;
      }

      .cls-2 {
        fill: #f7e4e0;
      }
    </style>
  </defs>
  <g id="_レイヤー_1-2" data-name="レイヤー 1">
    <g>
      <rect class="cls-2" width="318.48" height="182.58"/>
      <polygon class="cls-1" points="310.52 162.77 310.52 176.61 296.68 176.61 310.52 162.77"/>
    </g>
    <g>
      <g>
        <path d="m109.64,82.94s.08-.06.11-.07c.07-.02.19-.04.36-.05.4-.02.65-.06.74-.11.06-.08.09-.2.09-.35v-.43s0-1.58,0-1.58v-.74s0-1.56,0-1.56l-.03-1.77c0-.42-.03-.66-.08-.71-.07-.08-.29-.12-.66-.14-.16,0-.29-.02-.41-.04-.05-.03-.08-.07-.08-.11,0-.03.01-.07.03-.12.04-.02.07-.03.1-.03.06,0,.13,0,.21,0,.24.02.5.04.76.04h.46s1.09.01,1.09.01c.54,0,.97,0,1.28-.02.31-.01.51-.02.62-.02.09,0,.33,0,.71.02h.88s.11.01.11.01l.51-.02.06.03s.04.07.04.1c0,.06,0,.15-.03.27s-.03.19-.03.22c0,.43.01.79.04,1.09,0,.02-.02.04-.04.05-.04,0-.08,0-.12-.02-.05-.08-.11-.22-.18-.42-.08-.2-.19-.43-.34-.69-.1-.17-.18-.28-.24-.31-.06-.03-.18-.05-.36-.05-.04,0-.23,0-.56-.01-.09,0-.18,0-.27,0l-1.77.04h-.16c-.23,0-.36.03-.41.09-.07.1-.11.39-.11.87,0,.05,0,.54.03,1.49v.86s.09.02.15.02h.11c.07,0,.17,0,.31,0,.21,0,.36.01.43.01.05,0,.09,0,.13,0,.45-.02,1.02-.02,1.72-.02.22-.04.35-.08.38-.13.06-.07.11-.27.14-.58s.1-.49.21-.53c.05,0,.1.01.15.03,0,.03.01.06.01.09s0,.08-.01.14c-.02.15-.03.63-.03,1.44,0,.21.01.45.03.72.02.26.03.41.03.43,0,.04,0,.09-.02.15-.03.02-.06.02-.08.02h-.04c-.07-.12-.13-.29-.19-.54-.11-.42-.22-.68-.34-.78-.12-.1-.31-.16-.57-.16-.06,0-.16,0-.32,0s-.38,0-.68,0h-.4c-.57,0-.95.01-1.13.04v.21s0,1.14,0,1.14v.72s0,.7,0,.7c0,.42.03.67.08.73.07.09.22.14.46.14h.38s.16,0,.39,0c.23,0,.5,0,.83,0,.8,0,1.33-.03,1.59-.1.26-.07.48-.19.65-.36.17-.17.39-.55.65-1.12.08-.17.16-.25.24-.25.04,0,.08.02.12.05-.12.41-.19.68-.2.81-.05.29-.07.58-.08.89,0,.14-.03.25-.1.34h-.14l-1.74.02h-.78s-1.86.02-1.86.02h-.76c-.09,0-.18,0-.27,0-.74.03-1.29.05-1.64.05-.06,0-.1-.01-.13-.03-.02-.02-.03-.05-.03-.09v-.06Z"/>
        <path d="m117.59,82.83c.06-.03.11-.05.16-.05h.14s.08,0,.15,0c.32-.03.51-.06.56-.09.14-.08.27-.21.37-.41.21-.42.46-1.02.73-1.79.13-.37.21-.59.24-.67.1-.25.2-.51.3-.78l.58-1.63c.09-.26.31-.84.66-1.76.09-.23.19-.54.32-.93h.18s.22,0,.22,0c.18.35.33.73.47,1.13.07.21.2.53.36.96l.94,2.55.5,1.38c.26.78.44,1.27.52,1.45.08.18.16.3.23.36.02.02.1.04.23.07.13.03.23.06.28.07.19.05.32.1.4.14.02.05.02.08.02.11,0,.02,0,.05-.02.09-.13,0-.23,0-.28,0-.21,0-.58,0-1.12-.02h-.62s-.75,0-.75,0c-.05,0-.1,0-.15,0-.05,0-.1,0-.13,0h-.14s-.09-.02-.12-.04c0-.06,0-.11.03-.17.05-.02.09-.04.14-.04l.65-.04c.17,0,.3-.03.38-.07.03-.07.04-.13.04-.17,0-.07-.05-.27-.16-.58-.07-.21-.14-.4-.19-.59-.06-.19-.28-.8-.66-1.84-.17-.03-.32-.04-.45-.04h-1.33s-.39,0-.39,0c-.14,0-.3.01-.46.03-.05.12-.09.21-.11.27l-.55,1.7c-.23.65-.35,1.01-.35,1.07,0,.04.02.1.06.19.09.02.2.05.35.07l.84.07s.07.07.07.1c0,.02,0,.05-.02.09-.19,0-.33,0-.43,0-.33,0-.71-.01-1.15-.03-.2,0-.35-.01-.43-.01s-.24,0-.45.01c-.14,0-.24.01-.3.01-.1,0-.23,0-.38-.02v-.04s0-.07.02-.12Zm2.96-3.72c.44.02.95.04,1.51.04.32,0,.61-.01.85-.03-.04-.16-.09-.31-.14-.45-.27-.72-.42-1.11-.45-1.19l-.56-1.43-.06-.11s-.12.26-.27.64c-.26.64-.46,1.15-.57,1.5-.05.16-.11.32-.17.48-.06.16-.09.27-.11.33s-.04.13-.07.2l.04.02Z"/>
        <path d="m131.18,75.39c.03.27.05.43.05.47l-.02.55c0,.24-.02.39-.03.45-.04.02-.07.02-.09.02h-.06c-.13-.59-.36-1.01-.67-1.28-.32-.26-.7-.4-1.16-.4s-.86.13-1.16.4-.45.57-.45.92c0,.27.11.51.32.74.21.22.75.56,1.62,1,.66.34,1.13.62,1.42.84.29.22.5.47.64.75s.22.6.22.96c0,.44-.12.86-.34,1.25-.23.39-.54.68-.93.88-.39.2-.9.29-1.54.29-.56,0-1.09-.09-1.61-.27-.3-.11-.48-.19-.55-.26-.07-.07-.1-.14-.1-.21,0-.05,0-.1.01-.17.06-.49.09-.89.09-1.2,0-.19.02-.31.04-.34.02-.03.05-.04.09-.04.04,0,.07.01.09.04.02.03.04.08.05.15.04.51.28.96.71,1.36.42.4.9.6,1.43.6.33,0,.63-.07.9-.2s.49-.33.64-.59c.16-.26.23-.51.23-.75,0-.33-.12-.64-.35-.92-.24-.28-.71-.6-1.42-.97-.71-.37-1.17-.64-1.39-.81-.35-.28-.61-.57-.78-.88-.13-.24-.19-.52-.19-.84,0-.57.23-1.06.68-1.46.45-.4,1.06-.6,1.83-.6.42,0,.78.05,1.09.14.22.07.45.2.69.37Z"/>
        <path d="m132.2,75.05h.3c.11,0,.34,0,.71.02.56.02,1.03.03,1.4.03h.72c.1-.01.2,0,.3.01.03.03.04.07.04.11v.07l-.16.07h-.42s-.18,0-.18,0c-.14,0-.25.03-.34.09-.07.05-.1.09-.1.14,0,.05.03.12.09.2.02.03.05.08.1.15.08.14.19.3.33.49.19.27.4.6.62.97.09.15.18.29.27.43l.94,1.43c.06-.08.15-.19.25-.35l.89-1.28,1.03-1.54c.09-.14.14-.24.16-.31,0-.03.01-.07.01-.11,0-.09-.04-.16-.12-.21-.13-.09-.41-.15-.83-.19-.03,0-.07-.01-.12-.02-.03-.05-.04-.09-.04-.12,0-.02,0-.05,0-.08h.32s1.17.02,1.17.02l.94-.02s.11,0,.26,0l-.02.22s-.07.01-.14.02l-.15.02s-.06,0-.12.01c-.09.03-.16.07-.21.11-.61.64-1.12,1.25-1.55,1.82-.42.57-.78,1.09-1.08,1.55-.09.15-.17.27-.23.34-.11.14-.17.24-.19.31-.04.16-.07.41-.07.73,0,1.29.02,2.05.07,2.28.03.12.06.19.1.21.11.05.53.12,1.28.19v.07s-.01.11-.04.18l-1.59-.07-1.06.06h-.87c-.08,0-.17,0-.27,0-.02-.05-.02-.08-.02-.1s0-.05.02-.09c.03-.02.06-.04.09-.04l.8-.12c.28-.09.43-.15.47-.19.05-.05.08-.13.09-.23,0-.07,0-.65,0-1.72,0-.4-.01-.65-.04-.73-.03-.09-.11-.24-.26-.47l-.81-1.23-1.38-2.01c-.24-.35-.45-.58-.63-.7-.08-.05-.27-.09-.59-.12-.03,0-.08,0-.15-.01l-.02-.27Z"/>
        <path d="m146.92,82.84c.6-.07.94-.12,1.02-.15.05-.02.1-.08.15-.19v-.07c0-.1.02-.48.05-1.12,0-.18.01-.36.01-.53l-.02-.74v-.84s0-1.55,0-1.55v-1.11c.01-.47-.03-.76-.1-.86-.08-.1-.27-.18-.59-.22s-.49-.08-.53-.1c-.03-.02-.05-.05-.05-.1,0-.03,0-.07.02-.11.04-.04.14-.06.29-.06.02,0,.08,0,.17-.02s.18-.02.26-.02h.51l1.63-.02c.92,0,1.57.07,1.94.2s.66.37.88.69.33.69.33,1.09c0,.76-.4,1.34-1.19,1.74-.14.07-.24.13-.32.19.14.3.34.65.59,1.07l.79,1.35c.31.5.53.81.65.93s.27.23.44.31c.17.08.46.16.86.24,0,.04,0,.07,0,.1s0,.06,0,.09c-.57,0-1.23.01-1.99.01-.05,0-.13,0-.22-.01-.29-.56-.64-1.18-1.04-1.86l-.92-1.68c-.12-.17-.23-.28-.31-.33-.08-.04-.19-.07-.32-.07h-.53s-.17,0-.17,0c-.01.13-.02.4-.02.81v2.12c0,.08.01.19.05.33.03.08.09.14.17.19.08.05.31.12.7.21l.25.06s.05.1.05.17c-.11.02-.19.03-.24.03-.37,0-.63,0-.79-.01-.08,0-.14,0-.19,0h-.84s-.82,0-.82,0c-.04,0-.22,0-.56.02l-.12-.02v-.06s.02-.08.07-.13Zm2.3-4.05c.11,0,.19,0,.25,0,.3,0,.64-.04,1.03-.11.27-.05.49-.14.66-.26.17-.12.31-.3.42-.54.11-.24.17-.49.17-.74,0-.28-.09-.58-.27-.89-.14-.24-.37-.44-.69-.6s-.71-.24-1.17-.24c-.11,0-.26,0-.43.02-.02.21-.02.38-.02.49l.03,1.16v.48c0,.32,0,.73.02,1.23Z"/>
        <path d="m154.81,82.94s.08-.06.11-.07c.07-.02.19-.04.36-.05.4-.02.65-.06.74-.11.06-.08.09-.2.09-.35v-.43s0-1.58,0-1.58v-.74s0-1.56,0-1.56l-.03-1.77c0-.42-.03-.66-.08-.71-.07-.08-.29-.12-.66-.14-.16,0-.3-.02-.42-.04-.05-.03-.08-.07-.08-.11,0-.03,0-.07.03-.12.04-.02.07-.03.1-.03.06,0,.13,0,.21,0,.24.02.5.04.76.04h.46s1.09.01,1.09.01c.54,0,.97,0,1.28-.02.3-.01.51-.02.62-.02.09,0,.33,0,.71.02h.88s.11.01.11.01l.51-.02.06.03s.04.07.04.1c0,.06,0,.15-.03.27s-.03.19-.03.22c0,.43.01.79.04,1.09,0,.02-.02.04-.04.05-.04,0-.08,0-.12-.02-.05-.08-.11-.22-.18-.42-.08-.2-.19-.43-.34-.69-.1-.17-.18-.28-.24-.31-.06-.03-.18-.05-.36-.05-.04,0-.22,0-.56-.01-.09,0-.18,0-.27,0l-1.77.04h-.15c-.23,0-.36.03-.41.09-.07.1-.11.39-.11.87,0,.05,0,.54.03,1.49v.86s.1.02.15.02h.11c.07,0,.17,0,.31,0,.21,0,.36.01.43.01.05,0,.09,0,.13,0,.45-.02,1.02-.02,1.72-.02.22-.04.35-.08.38-.13.06-.07.11-.27.14-.58.03-.31.1-.49.21-.53.05,0,.1.01.15.03,0,.03.01.06.01.09s0,.08-.01.14c-.02.15-.03.63-.03,1.44,0,.21.01.45.03.72.02.26.03.41.03.43,0,.04,0,.09-.02.15-.03.02-.06.02-.08.02h-.04c-.07-.12-.13-.29-.19-.54-.11-.42-.22-.68-.34-.78-.12-.1-.31-.16-.57-.16-.06,0-.16,0-.32,0s-.38,0-.68,0h-.4c-.57,0-.95.01-1.13.04v.21s0,1.14,0,1.14v.72s0,.7,0,.7c0,.42.03.67.08.73.07.09.22.14.46.14h.38s.16,0,.39,0c.22,0,.5,0,.83,0,.8,0,1.33-.03,1.59-.1s.48-.19.65-.36c.17-.17.39-.55.65-1.12.08-.17.16-.25.23-.25.04,0,.08.02.12.05-.12.41-.19.68-.21.81-.04.29-.07.58-.08.89,0,.14-.03.25-.1.34h-.14l-1.74.02h-.78s-1.86.02-1.86.02h-.76c-.1,0-.18,0-.27,0-.74.03-1.29.05-1.64.05-.06,0-.1-.01-.13-.03-.02-.02-.04-.05-.04-.09v-.06Z"/>
        <path d="m165.77,75.36c.64-.32,1.35-.48,2.12-.48s1.41.17,2,.51c.59.34,1.07.8,1.42,1.36.44.7.66,1.45.66,2.27,0,.53-.11,1.08-.34,1.65-.23.56-.52,1.03-.88,1.39-.36.36-.72.63-1.1.81-.38.18-.67.28-.89.3-.15.02-.26.05-.33.09.17.2.46.46.87.79s.82.57,1.22.75c.04.01.1.04.2.09.22.11.43.2.63.29l.14.06h.05s.16.07.16.07c.21.09.41.17.59.22,0,.04,0,.07,0,.09v.07s0,.11,0,.11c-.13,0-.21,0-.24,0-.38,0-.82-.07-1.32-.21-.5-.14-.96-.33-1.38-.57s-.88-.55-1.37-.94c-.33-.27-.6-.53-.82-.79-.72-.1-1.38-.35-1.96-.75s-1.02-.89-1.33-1.47-.46-1.19-.46-1.8c0-.72.19-1.45.57-2.18s.97-1.31,1.78-1.72Zm1.21,7.62c.23.04.44.06.64.06.46,0,.86-.07,1.22-.21.36-.14.65-.32.86-.55.28-.29.52-.71.72-1.24.2-.53.3-1.2.3-2,0-.63-.09-1.21-.28-1.73-.12-.36-.33-.72-.62-1.08s-.59-.63-.9-.8c-.31-.17-.71-.26-1.18-.26-.56,0-1.08.14-1.57.43-.49.29-.89.79-1.22,1.51-.21.45-.31,1.09-.31,1.9,0,.66.12,1.31.34,1.94.23.63.55,1.14.98,1.53.24.23.58.4,1,.51Z"/>
        <path d="m176.22,75.08c.02.07.03.12.03.16,0,.02,0,.06-.02.11-.11.03-.19.04-.26.04-.03,0-.08,0-.15,0s-.12,0-.16,0c-.19,0-.34.04-.45.11-.07.05-.12.1-.14.18l-.06.71.02,3.07c0,1.12.04,1.82.11,2.1s.19.5.35.68c.17.18.41.32.75.44.33.12.66.17.97.17.7,0,1.24-.1,1.61-.3.37-.2.64-.48.8-.84.16-.36.25-.9.25-1.63,0-.02,0-.19-.02-.5v-.18c0-.07,0-.2.01-.39,0-.19.01-.3.01-.34l-.09-1.78c-.03-.6-.06-.95-.1-1.06-.04-.11-.1-.19-.17-.24-.16-.12-.47-.22-.92-.31-.02-.06-.03-.12-.04-.18.16-.02.32-.02.48-.02.17,0,.34,0,.52.02.27.02.42.03.45.03l.98-.03h.19s0,.23,0,.23c-.51.07-.81.14-.91.23s-.15.25-.15.49c0,.13,0,.41.02.84l.04,1.28v.51s.01.65.01.65c0,.81-.02,1.36-.07,1.66-.07.41-.16.73-.28.97-.12.24-.3.46-.53.65-.23.19-.54.35-.93.47s-.77.19-1.14.19c-.59,0-1.02-.04-1.28-.12-.48-.14-.85-.33-1.13-.56-.28-.23-.48-.46-.58-.69-.14-.31-.22-.75-.22-1.34v-.43l-.02-1.74.02-1.4v-.94c0-.24-.03-.41-.1-.5-.05-.07-.11-.1-.2-.1h-.37c-.27,0-.45-.02-.52-.08-.01-.04-.02-.07-.02-.1,0-.04.01-.07.04-.09.04-.03.1-.05.17-.05h.58s.98,0,.98,0l1.63-.02Z"/>
        <path d="m181.9,82.94s.08-.06.11-.07c.07-.02.19-.04.36-.05.4-.02.65-.06.74-.11.06-.08.09-.2.09-.35v-.43s0-1.58,0-1.58v-.74s0-1.56,0-1.56l-.03-1.77c0-.42-.03-.66-.08-.71-.07-.08-.29-.12-.66-.14-.16,0-.3-.02-.42-.04-.05-.03-.08-.07-.08-.11,0-.03.01-.07.03-.12.04-.02.07-.03.1-.03.06,0,.13,0,.21,0,.24.02.5.04.76.04h.46s1.09.01,1.09.01c.54,0,.97,0,1.28-.02.31-.01.51-.02.62-.02.1,0,.33,0,.71.02h.88s.11.01.11.01l.51-.02.06.03s.04.07.04.1c0,.06,0,.15-.03.27s-.03.19-.03.22c0,.43.01.79.04,1.09,0,.02-.02.04-.04.05-.04,0-.08,0-.12-.02-.04-.08-.11-.22-.18-.42-.08-.2-.19-.43-.34-.69-.1-.17-.18-.28-.24-.31-.06-.03-.18-.05-.36-.05-.04,0-.23,0-.56-.01-.09,0-.18,0-.27,0l-1.77.04h-.16c-.23,0-.36.03-.41.09-.07.1-.11.39-.11.87,0,.05.01.54.03,1.49v.86s.09.02.15.02h.11c.07,0,.17,0,.31,0,.21,0,.36.01.43.01.05,0,.09,0,.13,0,.45-.02,1.02-.02,1.72-.02.22-.04.35-.08.38-.13.06-.07.11-.27.14-.58s.1-.49.21-.53c.05,0,.1.01.15.03,0,.03.01.06.01.09s0,.08-.01.14c-.02.15-.03.63-.03,1.44,0,.21.01.45.03.72.02.26.03.41.03.43,0,.04,0,.09-.02.15-.03.02-.06.02-.08.02h-.04c-.07-.12-.13-.29-.19-.54-.11-.42-.22-.68-.34-.78-.12-.1-.31-.16-.57-.16-.06,0-.16,0-.32,0-.15,0-.38,0-.68,0h-.4c-.57,0-.95.01-1.13.04v.21s0,1.14,0,1.14v.72s0,.7,0,.7c0,.42.03.67.08.73.07.09.22.14.46.14h.38s.16,0,.39,0c.22,0,.5,0,.83,0,.8,0,1.33-.03,1.59-.1.26-.07.48-.19.65-.36.17-.17.39-.55.65-1.12.08-.17.16-.25.24-.25.04,0,.08.02.12.05-.12.41-.19.68-.21.81-.04.29-.07.58-.08.89,0,.14-.03.25-.1.34h-.14l-1.74.02h-.78s-1.86.02-1.86.02h-.76c-.1,0-.18,0-.27,0-.74.03-1.29.05-1.64.05-.06,0-.1-.01-.13-.03-.02-.02-.03-.05-.03-.09v-.06Z"/>
        <path d="m194.85,75.39c.03.27.05.43.05.47l-.02.55c0,.24-.02.39-.03.45-.04.02-.07.02-.09.02h-.06c-.13-.59-.36-1.01-.67-1.28-.32-.26-.7-.4-1.16-.4s-.86.13-1.16.4-.45.57-.45.92c0,.27.11.51.32.74.21.22.75.56,1.62,1,.66.34,1.13.62,1.42.84.29.22.5.47.64.75s.22.6.22.96c0,.44-.11.86-.34,1.25-.23.39-.54.68-.93.88-.39.2-.9.29-1.54.29-.56,0-1.09-.09-1.6-.27-.3-.11-.49-.19-.55-.26-.07-.07-.1-.14-.1-.21,0-.05,0-.1.01-.17.06-.49.09-.89.09-1.2,0-.19.02-.31.04-.34.02-.03.05-.04.09-.04.04,0,.07.01.09.04s.04.08.05.15c.04.51.28.96.71,1.36.42.4.9.6,1.43.6.33,0,.63-.07.9-.2s.49-.33.64-.59c.16-.26.23-.51.23-.75,0-.33-.12-.64-.35-.92-.24-.28-.71-.6-1.42-.97-.71-.37-1.17-.64-1.39-.81-.35-.28-.61-.57-.78-.88-.13-.24-.19-.52-.19-.84,0-.57.23-1.06.68-1.46.45-.4,1.06-.6,1.83-.6.42,0,.78.05,1.09.14.22.07.45.2.69.37Z"/>
        <path d="m196.22,76.03l.25-.94c.02-.12.04-.2.07-.24.03-.04.06-.05.1-.05.08,0,.16.09.25.27.07.13.13.21.17.24.05.04.11.06.2.07h.06s.27.02.27.02l1.46.02h1.73s.51,0,.51,0l.96-.02s.09,0,.16.01c.28.02.45.04.52.04.06,0,.11-.02.15-.06.01-.02.08-.15.21-.41.05-.12.12-.17.2-.17.03,0,.07,0,.12.02.02.08.03.16.03.22v.25s0,.52,0,.52c0,.13-.01.54-.03,1.23,0,.05,0,.09-.03.12-.04.03-.08.04-.12.04s-.06-.02-.09-.05-.06-.13-.09-.29c-.08-.37-.19-.63-.31-.79-.08-.1-.2-.18-.36-.22-.16-.04-.53-.07-1.11-.07h-1.05c0,.17-.01.32-.01.45l.05,3.85c0,.15,0,.44-.02.87v.82s0,.46,0,.46c0,.14.02.25.07.31s.18.12.4.18c.38.1.63.15.76.17.08,0,.14.02.19.05v.19l-.88-.02c-.48,0-.85-.01-1.09-.03l-.9.04-.66.04c-.19,0-.3,0-.34-.01l-.09-.04c0-.1.03-.16.06-.18.03-.03.11-.05.23-.06.17-.02.38-.07.61-.13.24-.06.39-.13.46-.19.04-.04.07-.1.09-.19.04-.18.06-.54.06-1.07v-1.05l-.03-2.3-.02-.5v-1.65h-1c-.59,0-.96.04-1.08.11-.2.11-.5.44-.9.99-.13.2-.25.31-.35.31h-.05s-.03-.06-.03-.08c0-.05.03-.2.1-.45.08-.32.13-.53.15-.64Z"/>
      </g>
      <g>
        <path d="m76.61,59.3c.65.49,1.53,1.09,2,1.39.37.23.6.3.86.3.58,0,.93-.49,1.04-.7,1.37-2.37,1.83-6.64,1.83-7.5,0-1.63-.37-2.35-1.56-2.35-.6,0-1.39.14-1.97.28-.42.88-2.09,4.88-2.48,5.67-.93,1.86-1.9,3.88-2.9,5.5-.05.07-.39.65-.74.65-.33,0-.53-.3-.53-.86,0-.72.25-1.02.88-1.79.25-.3,1.51-2.37,2.39-4.09.84-1.63,1.97-4.3,2.16-4.76-.74.26-3.07,1.07-3.46,1.37-.46.33-.58.39-.86.39-.74,0-1.88-1-1.88-2.35,0-.14.02-.21.09-.35.35.56.93,1.18,1.67,1.18.32,0,.7-.09,1.49-.3,1.9-.53,1.97-.53,3.34-.91.39-.93,1.25-3.04,1.25-3.83,0-.6-.19-.98-.77-1.25-.14-.07-.81-.39-.93-.44.26-.07.51-.12.93-.12,1.65,0,2.44,1.04,2.44,1.51,0,.21,0,.23-.44,1.02-.23.42-1.07,2.44-1.25,2.83.23-.05.98-.16,1.7-.16,2.42,0,2.55,2.35,2.55,3.44,0,1.39-.79,6.94-2.48,8.83-.3.33-1.25,1.32-1.95,1.32-.51,0-.53-.28-.56-.7,0-.37-.12-.84-1.93-3.14l.07-.12Zm9.66-4.34c1.58-.05,3.13-.07,3.13-1.18,0-.53-1.09-2.25-4.6-4.64,3.02.44,4.71,2.58,5.04,3,.98,1.21,1.3,2.37,1.3,3.44,0,.51-.09.79-.42.79-.19,0-.28-.05-.77-.37-.28-.19-.46-.12-1.9-.46-.19-.05-1.21-.28-1.79-.42v-.14Z"/>
        <path d="m112.93,55.19c-.51,2.11-1.14,3.83-2.11,5.02-.65.77-1.97,2-3.9,2-2.48,0-2.72-1.93-3-4.2-.21-1.72-.37-2.93-1.74-2.93s-2.65.74-4.02,2.58c-.88,1.18-1.07,1.53-2.21,4.27-.21.49-.37.91-.79.91-.58,0-.67-1.28-.67-1.42,0-.3.16-.67.65-1.32,1.09-1.46,4.67-8.15,5.92-10.68.32-.67,1.16-2.37,1.16-2.93,0-.28-.19-.74-.95-1.35.19-.05.3-.09.51-.09.98,0,2.21,1,2.21,1.93,0,.46-.19.67-.6,1.14-.26.28-.37.46-.63.86-3.23,5.13-3.53,5.6-4.3,7.29,1.62-1.37,2.81-1.93,3.97-1.93,2.09,0,2.32,1.6,2.67,3.53.32,1.81.56,2.97,2.07,2.97,1,0,1.9-.46,2.83-1.39,1.28-1.25,2.14-2.95,2.72-4.25h.21Z"/>
        <path d="m122.91,45.83c0-.84-.56-1.09-1.23-1.44.21-.09.35-.19.7-.19,1.81,0,2.18,1.32,2.18,1.76,0,.12-.16.4-.37.72-.42.72-.81,1.7-1,2.21,1.16-.44,1.67-.74,2.09-.98.21-.14.88-.53,1.28-.53.28,0,.77.19.77.6,0,.14,0,.28-.49.53-1.25.7-2.51,1.07-4.09,1.51-.05.14-.09.26-.23.63-2.21,6.18-4.48,11.08-4.74,11.57-.07.16-.23.42-.63.42-.42,0-.6-.6-.6-1,0-.42.05-.46.74-1.49.98-1.42,1.35-2.37,4.23-9.48.09-.26.09-.28.14-.37-1,.23-2.39.42-3.16.42-.84,0-1.86-.51-2.25-1.23.44.12,1.21.3,2.37.3s2.3-.21,3.41-.51c.21-.63.88-2.72.88-3.46Zm6.9,15.61c1.32,0,2.32-.14,2.6-.19.46-.07.6-.09.77-.09.72,0,1.11.49,1.11.91,0,.28-.23.42-.46.46-.42.09-1.37.19-2.6.19-1.37,0-3.79-.09-5.09-.81-.95-.51-1.67-1.42-1.67-2.48,0-.72.25-1.23.44-1.58.14,2.09.42,3.6,4.9,3.6Zm-.28-7.83c1.46-1.23,1.95-1.63,1.95-1.93,0-.46-1.07-.67-2.09-.67-.72,0-1.3.07-1.74.09.93-.65,2.09-.93,3.23-.93,2.35,0,3.51,1.09,3.51,1.86,0,.33-.21.44-.53.44-.12,0-.65-.05-.74-.05-.07,0-1.97.35-3.44,1.3l-.14-.12Z"/>
        <path d="m157.52,55.19c-.51,2.11-1.14,3.83-2.11,5.02-.65.77-1.97,2-3.9,2-2.48,0-2.72-1.93-3-4.2-.21-1.72-.37-2.93-1.74-2.93s-2.65.74-4.02,2.58c-.88,1.18-1.07,1.53-2.21,4.27-.21.49-.37.91-.79.91-.58,0-.67-1.28-.67-1.42,0-.3.16-.67.65-1.32,1.09-1.46,4.67-8.15,5.92-10.68.33-.67,1.16-2.37,1.16-2.93,0-.28-.19-.74-.95-1.35.19-.05.3-.09.51-.09.98,0,2.21,1,2.21,1.93,0,.46-.19.67-.6,1.14-.25.28-.37.46-.63.86-3.23,5.13-3.53,5.6-4.3,7.29,1.62-1.37,2.81-1.93,3.97-1.93,2.09,0,2.32,1.6,2.67,3.53.33,1.81.56,2.97,2.07,2.97,1,0,1.9-.46,2.83-1.39,1.28-1.25,2.14-2.95,2.72-4.25h.21Z"/>
        <path d="m163.02,51.31c-.14.21-.42.72-.42,1,0,.26.28,1.35.28,1.58,0,.58-.33,1-.81,1-.74,0-.74-.63-.79-1.81-.02-1.14-.05-1.72-1.05-2.21l.07-.14c.44.02,1.37.07,1.76-.23,0-.02,1.42-1.16,3.76-4.67l.16.16c-.44,1.04-.74,1.56-2.97,5.32Zm5.18,11.22c-.19,0-.33-.02-.63-.09-1.97,1.09-4.02,1.74-6.92,2.09v-.16c2.46-.86,4.44-1.95,5.53-2.72.49-.35.7-.67.91-1l1.53,1.3c.16.14.21.19.21.28,0,.21-.16.3-.63.3Zm-4.92-14.96c-.56,0-.67-.3-1.16-1.49-.3-.7-.77-1.35-1.37-1.79l.05-.12c2.53.56,3.25,1.77,3.25,2.55,0,.58-.44.84-.77.84Zm12.29,6.87c0,.72.05,2.46.07,3.25.02.4.09,2.28.09,2.69,0,.35-.51.65-.84.65-.42,0-.42-.16-.44-.42h-8.71c0,.16,0,.35-.09.46-.14.23-.58.37-.88.37-.42,0-.42-.4-.42-.56,0-.02,0-.16.02-.3.12-1.37.14-2.9.14-3.92,0-3.25-.05-3.53-.14-4.13l1.44.79h8.34l.25-.35c.12-.12.16-.21.33-.21.09,0,.21.02.39.14l.95.6c.21.14.25.19.25.28,0,.21-.19.33-.77.65Zm3.23-.79c-3.21-1.07-5.43-3.14-6.67-6.29-1.32,2.86-3.81,4.9-6.53,5.43l-.12-.16c1.95-1.02,4.46-2.97,5.62-5.92h-2.76c-.79,1.05-2,2.53-3.72,3.76l-.09-.16c2.04-2.28,3.69-5.36,4.02-7.25l1.65.95c.09.07.21.19.21.33,0,.35-.37.37-.72.4-.21.35-.33.56-.93,1.42h7.34l.58-.7s.12-.12.3-.12c.16,0,.33.09.44.16l1.42,1.04s.16.12.16.35c0,.46-.39.49-1.44.53-.26.12-2.16,1.21-2.21,1.23l-.14-.09c.56-.95.79-1.37.97-1.86h-3.79c-.05.09-.05.12-.09.23,1.37,3.95,6.2,4.81,8.48,5.02v.14c-1.02.26-1.32.49-2,1.56Zm-4.34.23h-8.71v1.72h8.71v-1.72Zm0,2.28h-8.71v1.65h8.71v-1.65Zm0,2.21h-8.71v1.7h8.71v-1.7Zm2.86,6.29c-.39,0-.58-.16-1.23-.79-1.81-1.72-2.02-1.93-3.37-2.55l.09-.14c3.02.21,5.27,1.81,5.27,2.79,0,.4-.3.7-.77.7Z"/>
        <path d="m191.72,51.73h-3.81v1.35c1.3.39,1.9.6,2.55,1.18.6.51.67.86.67,1.14,0,.6-.39.79-.7.79-.42,0-.7-.3-1.07-1-.49-.91-.81-1.28-1.49-1.79,0,3.86.02,5.67.14,8.04.02.33.12,1.67.12,1.95,0,.63-.51,1.11-1.02,1.11s-.6-.37-.6-.72c0-.14.09-1.9.12-2.16.23-4.58.23-4.92.21-7.64-1.42,2.44-3.25,4.67-5.48,6.41l-.16-.19c2.48-2.39,5.18-7.9,5.41-8.48h-1.12c-.81,0-2.09.09-2.97.26l-.56-1c1.74.14,3.44.19,3.86.19h1c0-.74-.02-4.04-.05-4.71-.02-1.74-.05-2.28-.39-3.25l1.93.56c.09.05.35.12.35.35s-.37.46-.63.63c-.12,1.04-.12,3-.12,4.48v1.95h1.63l.77-.77c.16-.16.3-.28.37-.28.12,0,.33.14.42.26l.77.74c.14.14.23.21.23.35,0,.21-.21.26-.37.26Zm-6.97-2.32c-.53,0-.65-.4-.91-1.3-.23-.81-.58-1.6-1.14-2.16l.09-.14c1.88,1.16,2.72,1.77,2.72,2.69,0,.14-.02.91-.77.91Zm6.78-2.81c-.16.19-2.6,3.23-2.6,3.25l-.19-.07c.63-.98,1.35-3,1.58-3.81.14-.46.12-.74.12-1.02l1.67.88c.25.14.25.23.25.3,0,.33-.7.44-.84.46Zm11.64,8.82l-4.3.88c.02.84.09,4.58.14,5.34,0,.26.09,1.37.09,1.56,0,.63-.12.77-.28.93-.26.3-.56.4-.84.4-.49,0-.49-.49-.49-.77,0-.56.14-2.97.14-3.53.02-1.79.02-3.16.02-3.67l-5.04,1.02c-1.04.21-2.21.58-2.88.86l-.74-.88c1.65-.19,3.28-.46,3.83-.58l4.83-.98c0-1.39-.07-3.62-.07-4.99,0-5.5,0-5.97-.39-7.59l2.16.58c.19.05.33.14.33.32,0,.3-.09.35-.79.72-.07.72-.12,1.53-.12,3.97,0,.26.02,3.58.09,6.76l2.02-.42.51-1.07c.16-.35.25-.35.32-.35.12,0,.35.12.42.16l1.02.7c.21.14.28.23.28.37,0,.19-.16.23-.28.26Zm-8.25-1.25c-.53,0-.67-.42-.77-.77-.35-1.23-1.02-2.09-1.28-2.39l.09-.07c.77.23,2.69,1.11,2.69,2.37,0,.63-.4.86-.74.86Zm.16-5.48c-.53,0-.65-.44-.74-.77-.35-1.21-.98-2.02-1.28-2.39l.09-.05c.77.21,2.69,1.11,2.69,2.35,0,.63-.42.86-.77.86Z"/>
        <path d="m212.04,48.27h-4.2c-.74,0-2.04.07-3,.26l-.53-1c1.28.12,2.55.19,3.85.19h2.09l.44-.56c.12-.16.23-.28.37-.28s.35.16.44.26l.65.53c.09.09.23.19.23.35,0,.21-.21.26-.35.26Zm-.81,5.99h-2.51c-.72,0-2.02.09-2.97.28l-.56-1c1.28.09,2.58.16,3.86.16h.39l.54-.6c.14-.16.23-.28.39-.28s.28.14.37.23l.6.6c.16.16.23.23.23.37,0,.21-.21.23-.35.23Zm-.09,3.16c0,.74.19,4.55.19,4.76,0,.74-.95.84-.98.84-.44,0-.39-.46-.35-1.04h-3.32c.07.91.07.95.07,1.11,0,.81-.51,1.23-.95,1.23-.33,0-.51-.14-.51-.46s.09-1.74.12-2.02c.09-2.32.12-2.58.12-3.14,0-1.67-.14-2.42-.23-2.97l1.49.67h2.97l.51-.44c.09-.07.21-.19.33-.19.09,0,.23.12.3.16l.72.53c.21.16.23.28.23.35,0,.19-.21.3-.7.6Zm-.02-6.06h-2.25c-.72,0-2.04.07-3,.26l-.53-1c1.56.12,3,.19,4.16.19l.39-.53c.14-.19.23-.3.37-.3s.28.16.39.26l.58.53c.09.09.23.21.23.35,0,.21-.19.26-.35.26Zm.3-6.15h-2.42c-.74,0-2.04.07-3,.26l-.56-1c1.3.12,2.58.19,3.88.19h.32l.54-.53c.16-.16.28-.28.37-.28s.21.09.39.26l.58.51c.14.12.23.19.23.35,0,.21-.19.26-.35.26Zm-1.39,11.75h-3.34v4.46h3.34v-4.46Zm14.82-5.62h-9.08c-.72,0-2.04.09-2.97.28l-.56-1c1.28.09,2.58.16,3.86.16h1.46v-2.04h-.81c-.72,0-2.04.09-3,.28l-.53-1c1.28.09,2.58.16,3.86.16h.46c0-.28-.02-1.7-.02-1.9h-1.25c-.74,0-2.04.07-3,.26l-.53-1c1.28.09,2.55.19,3.86.19h.91c-.02-1.35-.16-1.83-.4-2.6l2,.49c.21.05.44.12.44.35,0,.26-.16.37-.74.7v1.07h3.25l.72-.79c.16-.19.26-.28.37-.28s.21.09.42.26l.86.74c.12.12.23.21.23.37,0,.21-.19.26-.35.26h-5.53v1.9h2.44l.46-.51c.16-.19.23-.28.37-.28.12,0,.28.12.44.23l.74.53c.12.09.23.16.23.35,0,.21-.19.23-.35.23h-4.34v2.04h3.99l.67-.81c.12-.14.25-.28.37-.28.16,0,.28.12.42.26l.77.79c.12.12.23.23.23.35,0,.21-.19.26-.37.26Zm-1.83,3.09c0,1.93,0,3.88.07,5.83,0,.33.09,1.74.09,2.04,0,.56,0,1.72-2.39,2.35-.16-.51-.37-1.07-1.72-1.88v-.21c.37.02,2.14.07,2.42,0,.23-.07.3-.33.3-.84v-2.25h-6.6c.02.58.02.65.02,1.46,0,.37.07,2.04.07,2.39,0,.58-.12.79-.35.95-.26.16-.53.23-.7.23-.28,0-.42-.19-.42-.51,0-.63.09-1.65.12-2.28s.07-2.97.07-5.09c0-.21,0-2.9-.09-3.81l1.44.65h6.04l.65-.46c.12-.07.26-.19.35-.19.12,0,.21.07.33.14l.74.51c.09.07.26.16.26.33,0,.26-.42.46-.7.63Zm-1.23-.39h-6.6v2.11h6.6v-2.11Zm0,2.67h-6.6v2.21h6.6v-2.21Z"/>
        <path d="m246.16,61.37c-.09.09-.6.49-.86.98-4.02-2.53-6.69-6.64-8.01-11.22.02,2.67.02,5.6.09,8.04,0,.44.09,2.37.09,2.79,0,1.42-.35,1.9-2.62,2.58-.44-.95-1.14-1.72-2.25-2.04l.07-.26c.35.07,1.14.19,2.16.19.88,0,1.04,0,1.18-.35.09-.19.09-2.53.09-2.93,0-2.25-.02-2.69-.16-10.33h-5.74c-.81,0-2.11.09-2.97.28l-.56-1c1.74.14,3.44.16,3.86.16h5.39c0-.42-.02-2.32-.05-2.69-.05-.95-.3-1.88-.39-2.28l2.21.72c.16.07.35.12.35.35,0,.3-.33.44-.79.65,0,.51.02,2.79.02,3.25h6.5l.84-1.02c.14-.19.23-.3.35-.3.14,0,.33.16.42.26l1.23,1.02c.12.12.23.21.23.37,0,.21-.19.23-.35.23h-9.22c0,.56.46,3,2.11,5.71,2.23-2.28,2.39-2.44,2.93-3.18.3-.44.35-.67.37-.95l1.7,1.35c.19.16.33.4.33.53,0,.16-.16.28-.42.28-.19,0-.3-.02-.77-.09-.35.23-.46.33-.84.53-.49.3-2.67,1.56-3.11,1.81,2.6,3.92,5.5,5.27,7.99,5.83v.19c-.65.12-.95.21-1.39.56Zm-16.95-.79c-.05.74-.07,1.14-.42,1.14-.19,0-.3-.14-.46-.33l-1.51-1.7c.7-.09,1.42-.35,3.39-1.49.81-.46,4.11-2.83,4.81-3.3l.16.14c-1.18,1.32-5.13,4.95-5.97,5.53Zm3-6.06c-.65,0-.91-.63-1.04-.93-.42-.98-1.28-2.14-2.04-2.72l.09-.19c1.76.6,3.76,1.3,3.76,2.95,0,.46-.33.88-.77.88Zm9.5-7.06c-.56,0-.86-.53-1.28-1.25,0-.02-.63-.81-.98-1.21-.14-.16-.23-.21-.49-.35l.07-.21c1.35.26,2.09.49,2.6.86.37.28.81.74.81,1.28,0,.37-.28.88-.74.88Z"/>
      </g>
      <g>
        <path d="m91.71,118.66v-7.59c-.55,1-1.07,1.78-1.56,2.37l-.73-.59c.74-.97,1.46-2.21,2.15-3.73.69-1.52,1.12-2.8,1.31-3.84l1.15.17c-.36,1.4-.9,2.84-1.63,4.33h.42v8.89h-1.11Zm9.62-.18h-2.22l-.15-1.03h1.92c.21,0,.38-.06.52-.18.13-.12.2-.26.2-.42v-9.99h-7.1v-.93h9.42v.93h-1.16v10.31c0,.38-.13.69-.4.93-.27.25-.61.37-1.03.37Zm-5.51-3.75v.81h-1.13v-6.41h4.91v5.6h-3.78Zm2.65-4.72h-2.65v3.83h2.65v-3.83Z"/>
        <path d="m109.46,107.21c0,.44-.02.94-.07,1.5h2.81c.69,0,1.24.25,1.63.74s.59,1.14.6,1.94c0,1.97-.21,3.6-.63,4.9s-1.14,1.94-2.18,1.94c-.61,0-1.46-.29-2.55-.86l.37-.93c.25.12.62.26,1.09.42s.8.23.97.23c.39,0,.71-.2.94-.61.24-.41.43-1,.59-1.78.16-.78.24-1.71.24-2.8,0-.97-.13-1.58-.39-1.84s-.61-.39-1.04-.39h-2.55c-.2,1.25-.41,2.31-.64,3.2s-.59,1.82-1.09,2.8c-.5.98-1.09,1.86-1.8,2.64l-.83-.6c.64-.75,1.27-1.8,1.9-3.14.63-1.34,1.05-2.92,1.26-4.75h-2.86v-.98h2.98c.03-.34.05-1.33.05-2.95h1.19v1.32Zm9.58,5.93l-1.13.3c-.67-2.45-1.64-4.35-2.92-5.71l.86-.59c.67.69,1.32,1.61,1.93,2.76.61,1.16,1.03,2.23,1.26,3.23Z"/>
        <path d="m123.78,118.31l-.15-1c3.13-.04,5.25-.31,6.33-.82s1.63-1.22,1.63-2.14c0-.81-.29-1.43-.85-1.86s-1.33-.66-2.3-.66c-1.15,0-2.34.25-3.57.76-1.23.5-2.16,1.15-2.81,1.93l-.96-.56c.63-1.63.99-3.62,1.06-5.95l1.19.03c-.03,1.32-.3,2.9-.79,4.74.67-.55,1.56-1.01,2.66-1.37,1.11-.36,2.14-.54,3.09-.54,1.42,0,2.52.3,3.3.89s1.18,1.46,1.18,2.59c0,1.25-.64,2.22-1.92,2.92-1.28.7-3.54,1.04-6.77,1.04h-.33Zm7.66-10.47l-.57.96c-.36-.17-.89-.36-1.61-.58-.72-.22-1.46-.44-2.25-.64-.78-.21-1.99-.45-3.61-.74l.33-.93c1.78.3,3.37.64,4.79,1.03s2.39.69,2.92.9Z"/>
        <path d="m137.17,118.67v-6c-.7.66-1.46,1.24-2.26,1.73l-.46-.77c1.05-.69,2.02-1.53,2.89-2.52s1.47-1.96,1.79-2.89h-4.02v-.86h2.07v-2.05h1.05v2.05h2.16l.24.35c-.62,1.42-1.4,2.68-2.35,3.79.24.22.55.47.91.74.63-.65,1.15-1.24,1.55-1.78l.75.49c-.41.53-.94,1.12-1.62,1.79l1.13.81-.61.83c-.82-.63-1.53-1.21-2.12-1.75v6.04h-1.1Zm2.85-.07l-.69-.7c1.61-1.48,2.65-3.03,3.11-4.65.46-1.61.69-3.66.69-6.15v-.21h-2.11v-.89h7.13v.21c0,1.98-.01,3.68-.04,5.11-.02,1.43-.09,2.68-.21,3.76-.11,1.08-.25,1.82-.43,2.21-.17.39-.43.68-.76.87-.33.19-.76.29-1.26.31h-1.74l-.14-.97h1.47c.42,0,.74-.08.98-.25s.43-.49.56-.98c.13-.49.23-1.42.29-2.79.06-1.37.09-3.14.09-5.32v-1.29h-2.74c0,1.92-.08,3.4-.24,4.42-.16,1.02-.41,1.98-.77,2.88s-.79,1.71-1.33,2.45c-.53.73-1.16,1.39-1.89,1.96Z"/>
        <path d="m156.66,115.78l-.84.7c-.16-.2-.34-.44-.54-.71-1.13,1.13-2.21,1.7-3.24,1.7-.62,0-1.12-.23-1.5-.69s-.58-1.03-.58-1.7c0-.88.23-1.73.69-2.56s1.08-1.54,1.88-2.13c-.31-.95-.57-1.97-.78-3.05l1.11-.29c.15.85.36,1.75.65,2.71,1.13-.61,2.39-.99,3.77-1.14.09-.92.13-1.77.13-2.55h1.2c-.02.97-.07,1.8-.14,2.48,1.47.02,2.7.46,3.67,1.32s1.45,1.97,1.45,3.33c0,1.51-.57,2.71-1.71,3.59s-2.69,1.38-4.64,1.5l-.27-.96c3.63-.35,5.44-1.76,5.44-4.21,0-1.08-.38-1.96-1.15-2.62s-1.73-1-2.91-1.01c-.34,2.07-1.11,3.87-2.32,5.43.18.25.39.53.64.85Zm-1.99-.89c-.73-1.11-1.33-2.29-1.81-3.52-.45.4-.82.82-1.11,1.26-.28.44-.47.86-.57,1.26-.1.4-.14.84-.14,1.32,0,.32.12.6.35.85s.51.38.82.38c.69,0,1.51-.52,2.45-1.55Zm-.9-4.2c.43,1.14.97,2.24,1.63,3.3.91-1.29,1.5-2.76,1.76-4.41-1.29.15-2.42.52-3.38,1.11Z"/>
        <path d="m178.01,108.21h-3.67c-.89.38-1.76,1.08-2.61,2.09s-1.27,2.07-1.27,3.16c0,.84.22,1.55.67,2.11.45.56,1.05.98,1.8,1.24.75.26,1.75.39,2.99.39.28,0,.58,0,.88-.02l-.07,1.08h-.04c-.9,0-1.65-.02-2.25-.05-.59-.03-1.22-.15-1.88-.36-.66-.21-1.24-.52-1.75-.95s-.88-.92-1.12-1.47-.37-1.19-.37-1.89c0-.98.3-1.95.9-2.92.6-.96,1.39-1.78,2.37-2.45h-7.35v-.97h12.75v1Z"/>
        <path d="m180.03,118.56l-.21-.98c.42-.03.99-.08,1.7-.14v-10.72h4.58v-1.41h1.18v1.41h4.65v6h-4.98c.5.95,1.13,1.75,1.88,2.4,1.74-.8,3.04-1.51,3.91-2.14l.78.78c-.93.62-2.22,1.29-3.89,1.98,1.04.73,2.44,1.37,4.21,1.92l-.69.93c-1.83-.58-3.35-1.34-4.55-2.29s-2.16-2.14-2.89-3.59h-3.05v4.61c2.67-.27,4.4-.48,5.2-.64v.94c-1.35.25-3.97.56-7.84.93Zm2.64-9.29h8.11v-1.71h-8.11v1.71Zm8.11.83h-8.11v1.76h8.11v-1.76Z"/>
        <path d="m201.69,113.87c-.17.46-.43,1.03-.79,1.7-.36.67-.72,1.23-1.1,1.67-.37.45-.76.67-1.16.67-.24,0-.46-.06-.65-.18s-.44-.34-.75-.68-.59-.8-.85-1.39c-.26-.59-.45-1.2-.57-1.85s-.18-1.27-.18-1.88c0-.55.06-1.32.17-2.32.12-1.05.18-1.82.19-2.3h1.23c-.02.44-.1,1.21-.23,2.3-.12.98-.18,1.75-.18,2.31,0,.85.09,1.61.27,2.29.18.68.44,1.26.78,1.75s.59.73.74.73c.25,0,.6-.35,1.03-1.04.43-.7.82-1.45,1.16-2.25l.9.47Zm6.7,2.15l-1.23.04v-.13c0-1.45-.23-2.85-.7-4.22s-1.14-2.59-2.01-3.66l.9-.57c1.99,2.28,3,5.13,3.04,8.55Z"/>
        <path d="m214.46,107.21c0,.44-.02.94-.07,1.5h2.81c.69,0,1.24.25,1.63.74s.59,1.14.6,1.94c0,1.97-.21,3.6-.63,4.9s-1.14,1.94-2.18,1.94c-.61,0-1.46-.29-2.55-.86l.37-.93c.25.12.62.26,1.09.42s.8.23.97.23c.39,0,.71-.2.94-.61.24-.41.43-1,.59-1.78.16-.78.24-1.71.24-2.8,0-.97-.13-1.58-.39-1.84s-.61-.39-1.04-.39h-2.55c-.2,1.25-.41,2.31-.64,3.2s-.59,1.82-1.09,2.8c-.5.98-1.09,1.86-1.8,2.64l-.83-.6c.64-.75,1.27-1.8,1.9-3.14.63-1.34,1.05-2.92,1.26-4.75h-2.86v-.98h2.98c.03-.34.05-1.33.05-2.95h1.19v1.32Zm9.58,5.93l-1.13.3c-.67-2.45-1.64-4.35-2.92-5.71l.86-.59c.67.69,1.32,1.61,1.93,2.76.61,1.16,1.03,2.23,1.26,3.23Z"/>
        <path d="m74.21,133.97c-.54.81-1.38,2.01-2.5,3.6l-.77-.75c.57-.69,1.18-1.53,1.82-2.51s1.13-1.83,1.45-2.53v-1.69h-2.7v-.96h2.7v-2.38h1.09v4.26c.78-.75,1.63-1.34,2.55-1.78.92-.44,1.8-.66,2.65-.66,1.27,0,2.33.45,3.16,1.34.83.89,1.25,1.98,1.25,3.29,0,1.65-.51,3-1.5,4.04s-2.69,1.67-5.09,1.88l-.24-.99c3.76-.25,5.65-1.88,5.65-4.9,0-.97-.3-1.82-.9-2.56-.6-.74-1.34-1.12-2.24-1.12-.9,0-1.82.25-2.76.76s-1.79,1.18-2.52,2.01v6.97s-1.09,0-1.09,0v-5.31Z"/>
        <path d="m90.71,128.21c0,.44-.02.94-.07,1.5h2.81c.69,0,1.24.25,1.63.74s.59,1.14.6,1.94c0,1.97-.21,3.6-.63,4.9s-1.14,1.94-2.18,1.94c-.61,0-1.46-.29-2.55-.86l.37-.93c.25.12.62.26,1.09.42s.8.23.97.23c.39,0,.71-.2.94-.61.24-.41.43-1,.59-1.78.16-.78.24-1.71.24-2.8,0-.97-.13-1.58-.39-1.84s-.61-.39-1.04-.39h-2.55c-.2,1.25-.41,2.31-.64,3.2s-.59,1.82-1.09,2.8c-.5.98-1.09,1.86-1.8,2.64l-.83-.6c.64-.75,1.27-1.8,1.9-3.14.63-1.34,1.05-2.92,1.26-4.75h-2.86v-.98h2.98c.03-.34.05-1.33.05-2.95h1.19v1.32Zm9.58,5.93l-1.13.3c-.67-2.45-1.64-4.35-2.92-5.71l.86-.59c.67.69,1.32,1.61,1.93,2.76.61,1.16,1.03,2.23,1.26,3.23Z"/>
        <path d="m105.03,139.31l-.15-1c3.13-.04,5.25-.31,6.33-.82s1.63-1.22,1.63-2.14c0-.81-.29-1.43-.85-1.86s-1.33-.66-2.3-.66c-1.15,0-2.34.25-3.57.76-1.23.5-2.16,1.15-2.81,1.93l-.96-.56c.63-1.63.99-3.62,1.06-5.95l1.19.03c-.03,1.32-.3,2.9-.79,4.74.67-.55,1.56-1.01,2.66-1.37,1.11-.36,2.14-.54,3.09-.54,1.42,0,2.52.3,3.3.89s1.18,1.46,1.18,2.59c0,1.25-.64,2.22-1.92,2.92-1.28.7-3.54,1.04-6.77,1.04h-.33Zm7.66-10.47l-.57.96c-.36-.17-.89-.36-1.61-.58-.72-.22-1.46-.44-2.25-.64-.78-.21-1.99-.45-3.61-.74l.33-.93c1.78.3,3.37.64,4.79,1.03s2.39.69,2.92.9Z"/>
        <path d="m120.52,127.09c-.03.77-.1,1.48-.18,2.15h3.26v.97h-3.41c-.5,2.93-1.54,5.42-3.11,7.47l-.86-.63c1.39-1.88,2.32-4.16,2.8-6.84h-2.39v-.97h2.55c.1-.71.16-1.43.18-2.16h1.16Zm9.38,10.44l-.59.93c-1.03-.83-1.93-1.44-2.72-1.82v.7c0,1.44-1.05,2.15-3.16,2.15-.87,0-1.61-.19-2.22-.56-.61-.37-.92-.88-.92-1.54,0-.72.31-1.28.93-1.7.62-.42,1.38-.62,2.28-.62.7,0,1.34.06,1.93.18v-3.97h1.16v4.31c.97.37,2.08,1.02,3.31,1.94Zm-4.44-1.32c-.65-.17-1.3-.26-1.96-.26-.57,0-1.07.12-1.5.35-.43.24-.64.56-.64.98,0,.83.74,1.25,2.22,1.25,1.26,0,1.89-.41,1.89-1.23v-1.09Zm4.47-5.02l-.9.72c-.9-1.14-2.15-2.32-3.75-3.52l.66-.73c1.37.8,2.7,1.98,3.99,3.53Z"/>
        <path d="m137.94,134.87c-.17.46-.43,1.03-.79,1.7-.36.67-.72,1.23-1.1,1.67-.37.45-.76.67-1.16.67-.24,0-.46-.06-.65-.18s-.44-.34-.75-.68-.59-.8-.85-1.39c-.26-.59-.45-1.2-.57-1.85s-.18-1.27-.18-1.88c0-.55.06-1.32.17-2.32.12-1.05.18-1.82.19-2.3h1.23c-.02.44-.1,1.21-.23,2.3-.12.98-.18,1.75-.18,2.31,0,.85.09,1.61.27,2.29.18.68.44,1.26.78,1.75s.59.73.74.73c.25,0,.6-.35,1.03-1.04.43-.7.82-1.45,1.16-2.25l.9.47Zm6.7,2.15l-1.23.04v-.13c0-1.45-.23-2.85-.7-4.22s-1.14-2.59-2.01-3.66l.9-.57c1.99,2.28,3,5.13,3.04,8.55Z"/>
        <path d="m151.42,132.82c-.53,3-2.17,5.24-4.92,6.7l-.58-.75c.86-.5,1.57-1.04,2.13-1.63s.99-1.18,1.3-1.78.52-1.13.66-1.61c.13-.48.24-.94.33-1.4.08-.45.14-1.36.17-2.74h-4.14v-.93h6.01v-2.23h1.19v2.23h6.32v.93h-8.19c0,.94-.05,1.71-.13,2.31h6.61v1.93c0,.83-.03,1.57-.09,2.2s-.15,1.16-.28,1.6c-.12.43-.3.78-.52,1.03s-.48.43-.79.54c-.3.11-.56.17-.77.18s-.72.01-1.53.01h-.96l-.16-1.03h1.91c.88,0,1.44-.36,1.66-1.08s.34-1.79.34-3.21v-1.28h-5.57Z"/>
        <path d="m164.19,138.89l-1.05.24c-.5-1.61-.75-3.35-.75-5.23,0-2.05.33-4.26,1-6.64l1.13.2c-.67,2.22-1.01,4.39-1.01,6.5,0,1.73.23,3.38.68,4.93Zm10-.36c-1.02.11-2.02.16-3,.16-1.36,0-2.37-.08-3.04-.24s-1.18-.42-1.53-.79-.52-.84-.52-1.41c0-.84.37-1.73,1.1-2.66l.85.45c-.6.66-.9,1.37-.9,2.14,0,.38.16.69.49.92s.76.39,1.3.47,1.32.11,2.32.11,1.99-.06,2.93-.18v1.02Zm-.09-9.32c-.78-.01-1.51-.02-2.2-.02-1.01,0-2.84.07-5.49.21,0-.22-.01-.55-.04-.99,2.51-.15,4.56-.22,6.13-.22.78,0,1.3,0,1.56.02v.07c0,.22.01.54.04.94Z"/>
        <path d="m182.97,138.83l.27-.9c.59.22,1.22.34,1.88.34.91,0,1.63-.21,2.15-.64s.78-1.03.78-1.82c0-.86-.35-1.52-1.05-1.97s-1.68-.67-2.94-.67c-.84,0-1.65.09-2.44.28v4.4c0,.94-.71,1.41-2.13,1.41-.82,0-1.53-.24-2.15-.72-.62-.48-.93-1.09-.93-1.83,0-.81.38-1.57,1.15-2.29.77-.71,1.73-1.26,2.88-1.64v-2.52h-3.65v-.96h3.62v-2.37h1.2v2.26h3.82v.96h-3.82v2.31c.8-.17,1.6-.26,2.42-.26,1.46,0,2.7.31,3.69.94s1.49,1.49,1.49,2.61-.35,1.98-1.04,2.61-1.64.94-2.83.94c-1,0-1.79-.15-2.38-.46Zm-2.49-5.04c-.84.33-1.55.75-2.12,1.27s-.86,1.04-.86,1.58.21.91.63,1.18c.42.27.88.41,1.4.41.63,0,.95-.22.95-.67v-3.76Zm9.6-3.18l-.94.67c-.96-1.19-2.15-2.28-3.59-3.27l.77-.68c.61.39,1.28.9,2.02,1.54.74.64,1.32,1.22,1.75,1.73Z"/>
        <path d="m204.89,129.5h-4.62v2.82c.32.57.48,1.34.48,2.33,0,1.29-.48,2.37-1.43,3.25-.95.88-2.12,1.36-3.52,1.45l-.3-.92c1.17-.08,2.16-.49,2.96-1.21s1.2-1.62,1.2-2.69c0-.18,0-.34-.03-.49-.12.57-.41,1.01-.86,1.34s-.99.49-1.62.49c-.71,0-1.32-.23-1.81-.68s-.74-1.02-.74-1.7c0-.79.28-1.44.83-1.97.55-.52,1.23-.79,2.04-.79.61,0,1.15.18,1.62.53v-1.77h-7.34v-.96h7.34v-1.75h1.18v1.75h4.62v.96Zm-5.79,2.97c-.28-.55-.86-.83-1.74-.83-.43,0-.81.18-1.15.53s-.5.74-.5,1.18c0,.47.13.85.4,1.14s.62.43,1.08.43c.58,0,1.04-.19,1.38-.56.34-.38.52-.87.54-1.48v-.42Z"/>
        <path d="m219.89,129.5h-4.62v2.82c.32.57.48,1.34.48,2.33,0,1.29-.48,2.37-1.43,3.25-.95.88-2.12,1.36-3.52,1.45l-.3-.92c1.17-.08,2.16-.49,2.96-1.21s1.2-1.62,1.2-2.69c0-.18,0-.34-.03-.49-.12.57-.41,1.01-.86,1.34s-.99.49-1.62.49c-.71,0-1.32-.23-1.81-.68s-.74-1.02-.74-1.7c0-.79.28-1.44.83-1.97.55-.52,1.23-.79,2.04-.79.61,0,1.15.18,1.62.53v-1.77h-7.34v-.96h7.34v-1.75h1.18v1.75h4.62v.96Zm-5.79,2.97c-.28-.55-.86-.83-1.74-.83-.43,0-.81.18-1.15.53s-.5.74-.5,1.18c0,.47.13.85.4,1.14s.62.43,1.08.43c.58,0,1.04-.19,1.38-.56.34-.38.52-.87.54-1.48v-.42Z"/>
        <path d="m227.91,136.78l-.84.7c-.16-.2-.34-.44-.54-.71-1.13,1.13-2.21,1.7-3.24,1.7-.62,0-1.12-.23-1.5-.69s-.58-1.03-.58-1.7c0-.88.23-1.73.69-2.56s1.08-1.54,1.88-2.13c-.31-.95-.57-1.97-.78-3.05l1.11-.29c.15.85.36,1.75.65,2.71,1.13-.61,2.39-.99,3.77-1.14.09-.92.13-1.77.13-2.55h1.2c-.02.97-.07,1.8-.14,2.48,1.47.02,2.7.46,3.67,1.32s1.45,1.97,1.45,3.33c0,1.51-.57,2.71-1.71,3.59s-2.69,1.38-4.64,1.5l-.27-.96c3.63-.35,5.44-1.76,5.44-4.21,0-1.08-.38-1.96-1.15-2.62s-1.73-1-2.91-1.01c-.34,2.07-1.11,3.87-2.32,5.43.18.25.39.53.64.85Zm-1.99-.89c-.73-1.11-1.33-2.29-1.81-3.52-.45.4-.82.82-1.11,1.26-.28.44-.47.86-.57,1.26-.1.4-.14.84-.14,1.32,0,.32.12.6.35.85s.51.38.82.38c.69,0,1.51-.52,2.45-1.55Zm-.9-4.2c.43,1.14.97,2.24,1.63,3.3.91-1.29,1.5-2.76,1.76-4.41-1.29.15-2.42.52-3.38,1.11Z"/>
        <path d="m236.82,137.44c0-.53.19-.99.58-1.36s.85-.56,1.4-.56,1.01.19,1.4.56.58.83.58,1.36-.19.99-.58,1.36-.85.56-1.4.56-1.01-.19-1.4-.56-.58-.83-.58-1.36Zm.86,0c0,.31.11.57.33.79s.48.33.79.33.57-.11.79-.33.33-.48.33-.79-.11-.57-.33-.79-.48-.33-.79-.33-.57.11-.79.33-.33.48-.33.79Z"/>
      </g>
    </g>
  </g>
</svg>