<?xml version="1.0" encoding="UTF-8"?>
<svg id="_レイヤー_2" data-name="レイヤー 2" xmlns="http://www.w3.org/2000/svg" viewBox="0 0 318.48 182.58">
  <defs>
    <style>
      .cls-1 {
        fill: #fff;
      }

      .cls-2 {
        fill: #f8c7c2;
      }
    </style>
  </defs>
  <g id="_レイヤー_1-2" data-name="レイヤー 1">
    <g>
      <rect class="cls-2" width="318.48" height="182.58"/>
      <polygon class="cls-1" points="311.18 162.77 311.18 176.61 297.34 176.61 311.18 162.77"/>
    </g>
    <g>
      <g>
        <path class="cls-1" d="m115.64,82.79c.13-.09.36-.15.69-.19.26-.01.42-.03.46-.07.03-.02.06-.06.07-.09.06-.15.11-.57.14-1.24.04-.88.1-2.05.18-3.51.07-1.12.1-1.81.1-2.09v-.16c-.3-.06-.77-.13-1.42-.2-.04-.06-.06-.11-.06-.14,0-.02.01-.06.04-.11.07-.02.12-.04.16-.04.03,0,.11,0,.22.02.2.03.48.04.83.04.12,0,.31,0,.59-.03.2-.01.31-.02.33-.02.07,0,.14.01.23.04.04.04.07.08.1.12l.26.58,1.75,3.88.73,1.63c.57-1.14,1.02-2.15,1.33-3.03.02-.07.04-.13.07-.18.04-.07.07-.15.1-.24.03-.09.17-.42.4-.99.09-.23.17-.43.23-.59.23-.66.37-1.04.41-1.13.08-.03.15-.05.21-.05.07,0,.15,0,.25.02.23.01.61.02,1.13.02.32,0,.59,0,.79-.01,0,.05.01.08.01.1,0,.03,0,.07-.02.12-.13.07-.29.11-.48.12-.37.02-.6.05-.7.09-.1.04-.16.08-.19.14-.03.06-.05.25-.07.57v.28s0,.3,0,.3c0,.62.02,1.66.05,3.12v1.21s0,.78,0,.78c0,.31.01.49.04.54.03.06.11.11.25.16.22.07.59.15,1.09.23.03.02.04.05.04.08,0,.04,0,.08,0,.12h-.29c-.24,0-.51,0-.79-.02-.29-.01-.44-.02-.46-.02-.85,0-1.41,0-1.69.03-.17.01-.28.02-.32.02-.03,0-.06,0-.09-.02v-.08s0-.08.02-.12c.14-.06.32-.1.56-.12.26-.07.45-.14.57-.22.04-.16.06-.48.06-.96l-.02-1.25c0-.14,0-.39.02-.76s.02-.98.02-1.82c0-.67-.02-1.17-.05-1.51-.07.14-.21.46-.41.94l-.09.24v.04s-.92,2.17-.92,2.17l-.33.84-.43,1.02c-.18.47-.34.88-.48,1.24-.06.17-.1.3-.14.39h-.14c-.47-1.37-1.02-2.77-1.67-4.2-.65-1.43-1.1-2.38-1.36-2.84-.03.18-.07.69-.12,1.55-.05,1.04-.08,2.19-.08,3.44,0,.39.03.83.09,1.32.02.14.08.24.18.31s.37.11.8.11c.17,0,.32.01.47.04.03.06.04.11.04.14,0,.02-.01.06-.03.11l-1.92-.07c-.14,0-.36,0-.66.03-.17.01-.4.02-.71.02v-.17Z"/>
        <path class="cls-1" d="m126.44,82.85s.08-.06.11-.07c.07-.02.19-.04.36-.05.4-.02.65-.06.74-.11.06-.08.09-.2.09-.35v-.43s0-1.58,0-1.58v-.74s0-1.56,0-1.56l-.03-1.77c0-.42-.03-.66-.08-.71-.07-.08-.29-.12-.66-.14-.16,0-.3-.02-.42-.04-.05-.03-.08-.07-.08-.11,0-.03,0-.07.03-.12.04-.02.07-.03.1-.03.06,0,.13,0,.21,0,.24.02.5.04.76.04h.46s1.09.01,1.09.01c.54,0,.97,0,1.28-.02.3-.01.51-.02.62-.02.09,0,.33,0,.71.02h.88s.11.01.11.01l.51-.02.06.03s.04.07.04.1c0,.06,0,.15-.03.27s-.03.19-.03.22c0,.43.01.79.04,1.09,0,.02-.02.04-.04.05-.04,0-.08,0-.12-.02-.05-.08-.11-.22-.18-.42-.08-.2-.19-.43-.34-.69-.1-.17-.18-.28-.24-.31-.06-.03-.18-.05-.36-.05-.04,0-.22,0-.56-.01-.09,0-.18,0-.27,0l-1.77.04h-.15c-.23,0-.36.03-.41.09-.07.1-.11.39-.11.87,0,.05,0,.54.03,1.49v.86s.1.02.15.02h.11c.07,0,.17,0,.31,0,.21,0,.36.01.43.01.05,0,.09,0,.13,0,.45-.02,1.02-.02,1.72-.02.22-.04.35-.08.38-.13.06-.07.11-.27.14-.58.03-.31.1-.49.21-.53.05,0,.1.01.15.03,0,.03.01.06.01.09s0,.08-.01.14c-.02.15-.03.63-.03,1.44,0,.21.01.45.03.72.02.26.03.41.03.43,0,.04,0,.09-.02.15-.03.02-.06.02-.08.02h-.04c-.07-.12-.13-.29-.19-.54-.11-.42-.22-.68-.34-.78-.12-.1-.31-.16-.57-.16-.06,0-.16,0-.32,0s-.38,0-.68,0h-.4c-.57,0-.95.01-1.13.04v.21s0,1.14,0,1.14v.72s0,.7,0,.7c0,.42.03.67.08.73.07.09.22.14.46.14h.38s.16,0,.39,0c.22,0,.5,0,.83,0,.8,0,1.33-.03,1.59-.1s.48-.19.65-.36c.17-.17.39-.55.65-1.12.08-.17.16-.25.23-.25.04,0,.08.02.12.05-.12.41-.19.68-.21.81-.04.29-.07.58-.08.89,0,.14-.03.25-.1.34h-.14l-1.74.02h-.78s-1.86.02-1.86.02h-.76c-.1,0-.18,0-.27,0-.74.03-1.29.05-1.64.05-.06,0-.1-.01-.13-.03-.02-.02-.04-.05-.04-.09v-.06Z"/>
        <path class="cls-1" d="m134.54,82.79c.13-.09.36-.15.69-.19.26-.01.42-.03.46-.07.03-.02.06-.06.07-.09.06-.15.11-.57.14-1.24.04-.88.1-2.05.18-3.51.07-1.12.1-1.81.1-2.09v-.16c-.3-.06-.77-.13-1.42-.2-.04-.06-.06-.11-.06-.14,0-.02.01-.06.04-.11.07-.02.12-.04.16-.04.03,0,.1,0,.22.02.2.03.48.04.83.04.12,0,.31,0,.59-.03.2-.01.31-.02.33-.02.07,0,.14.01.23.04.04.04.07.08.1.12l.26.58,1.75,3.88.73,1.63c.57-1.14,1.02-2.15,1.33-3.03.02-.07.04-.13.07-.18.04-.07.07-.15.1-.24.03-.09.17-.42.4-.99.09-.23.17-.43.23-.59.23-.66.37-1.04.41-1.13.08-.03.15-.05.21-.05.07,0,.15,0,.25.02.23.01.61.02,1.13.02.32,0,.59,0,.79-.01,0,.05.01.08.01.1,0,.03,0,.07-.02.12-.13.07-.29.11-.48.12-.37.02-.6.05-.7.09-.1.04-.16.08-.19.14-.03.06-.05.25-.07.57v.28s0,.3,0,.3c0,.62.02,1.66.05,3.12v1.21s0,.78,0,.78c0,.31.01.49.04.54.03.06.11.11.25.16.22.07.59.15,1.09.23.03.02.04.05.04.08,0,.04,0,.08,0,.12h-.29c-.24,0-.51,0-.79-.02-.29-.01-.44-.02-.46-.02-.85,0-1.41,0-1.69.03-.17.01-.28.02-.32.02-.03,0-.06,0-.09-.02v-.08s0-.08.02-.12c.14-.06.32-.1.56-.12.26-.07.45-.14.57-.22.04-.16.06-.48.06-.96l-.02-1.25c0-.14,0-.39.02-.76s.02-.98.02-1.82c0-.67-.02-1.17-.05-1.51-.07.14-.21.46-.41.94l-.09.24v.04s-.92,2.17-.92,2.17l-.33.84-.43,1.02c-.18.47-.34.88-.47,1.24-.06.17-.11.3-.14.39h-.14c-.47-1.37-1.02-2.77-1.67-4.2s-1.1-2.38-1.36-2.84c-.03.18-.07.69-.12,1.55-.05,1.04-.08,2.19-.08,3.44,0,.39.03.83.09,1.32.02.14.08.24.18.31.1.07.37.11.8.11.17,0,.32.01.47.04.03.06.04.11.04.14,0,.02,0,.06-.03.11l-1.92-.07c-.14,0-.36,0-.66.03-.17.01-.4.02-.71.02v-.17Z"/>
        <path class="cls-1" d="m145.2,75.27v-.19c.07-.02.13-.03.17-.03l.58-.03c.48-.04,1.02-.08,1.62-.1.24,0,.62-.01,1.13-.01.7,0,1.22.05,1.54.16.48.15.83.38,1.06.69.23.31.35.65.35,1.03,0,.61-.44,1.13-1.31,1.54l-.03.05c.45.12.81.29,1.1.5.28.21.5.48.66.79.11.23.17.52.17.89,0,.62-.28,1.16-.84,1.65-.56.48-1.33.72-2.31.72h-.92l-.94.03c-.83,0-1.31.01-1.45.01s-.29,0-.43-.02v-.07c0-.05.01-.09.03-.11.03-.03.07-.05.14-.06.52-.11.81-.18.88-.22s.12-.1.14-.19c.05-.16.07-.59.07-1.27,0-.06,0-.14,0-.23,0-.28-.01-.44-.01-.48v-.64c0-1.09-.01-2.04-.04-2.85v-1.24s-.01-.15-.01-.15c-.35-.05-.66-.08-.93-.09-.17,0-.31-.02-.42-.04Zm2.45,3.13c.21.04.42.06.65.06.89,0,1.5-.2,1.82-.59.32-.39.48-.78.48-1.17,0-.17-.03-.35-.08-.53-.06-.18-.16-.34-.3-.49s-.32-.25-.53-.32c-.36-.12-.73-.18-1.11-.18-.35,0-.68.04-.98.12,0,.09,0,.15,0,.19s0,.16.01.35c0,.12,0,.25,0,.37l-.02.75v.45s.05.87.05.87v.11Zm1.46,4.21c.41-.03.75-.12,1.03-.26.13-.07.28-.19.46-.36s.31-.38.41-.62c.1-.24.15-.47.15-.69,0-.17-.03-.38-.1-.63-.07-.25-.18-.47-.35-.65-.16-.19-.41-.34-.73-.46-.32-.12-.68-.18-1.07-.18-.75,0-1.17.01-1.27.04,0,.09,0,.17,0,.21v.23s0,.46,0,.46v.53c.01.97.04,1.54.07,1.72.03.18.15.33.34.46.19.13.55.19,1.07.2Z"/>
        <path class="cls-1" d="m153.14,82.85s.08-.06.11-.07c.07-.02.19-.04.36-.05.4-.02.65-.06.74-.11.06-.08.09-.2.09-.35v-.43s0-1.58,0-1.58v-.74s0-1.56,0-1.56l-.03-1.77c0-.42-.03-.66-.08-.71-.07-.08-.29-.12-.66-.14-.16,0-.3-.02-.42-.04-.05-.03-.08-.07-.08-.11,0-.03.01-.07.03-.12.04-.02.07-.03.1-.03.06,0,.13,0,.21,0,.24.02.5.04.76.04h.46s1.09.01,1.09.01c.54,0,.97,0,1.28-.02.31-.01.51-.02.62-.02.1,0,.33,0,.71.02h.88s.11.01.11.01l.51-.02.06.03s.04.07.04.1c0,.06,0,.15-.03.27s-.03.19-.03.22c0,.43.01.79.04,1.09,0,.02-.02.04-.04.05-.04,0-.08,0-.12-.02-.04-.08-.11-.22-.18-.42-.08-.2-.19-.43-.34-.69-.1-.17-.18-.28-.24-.31-.06-.03-.18-.05-.36-.05-.04,0-.23,0-.56-.01-.09,0-.18,0-.27,0l-1.77.04h-.16c-.23,0-.36.03-.41.09-.07.1-.11.39-.11.87,0,.05.01.54.03,1.49v.86s.09.02.15.02h.11c.07,0,.17,0,.31,0,.21,0,.36.01.43.01.05,0,.09,0,.13,0,.45-.02,1.02-.02,1.72-.02.22-.04.35-.08.38-.13.06-.07.11-.27.14-.58s.1-.49.21-.53c.05,0,.1.01.15.03,0,.03.01.06.01.09s0,.08-.01.14c-.02.15-.03.63-.03,1.44,0,.21.01.45.03.72.02.26.03.41.03.43,0,.04,0,.09-.02.15-.03.02-.06.02-.08.02h-.04c-.07-.12-.13-.29-.19-.54-.11-.42-.22-.68-.34-.78-.12-.1-.31-.16-.57-.16-.06,0-.16,0-.32,0-.15,0-.38,0-.68,0h-.4c-.57,0-.95.01-1.13.04v.21s0,1.14,0,1.14v.72s0,.7,0,.7c0,.42.03.67.08.73.07.09.22.14.46.14h.38s.16,0,.39,0c.22,0,.5,0,.83,0,.8,0,1.33-.03,1.59-.1.26-.07.48-.19.65-.36.17-.17.39-.55.65-1.12.08-.17.16-.25.24-.25.04,0,.08.02.12.05-.12.41-.19.68-.21.81-.04.29-.07.58-.08.89,0,.14-.03.25-.1.34h-.14l-1.74.02h-.78s-1.86.02-1.86.02h-.76c-.1,0-.18,0-.27,0-.74.03-1.29.05-1.64.05-.06,0-.1-.01-.13-.03-.02-.02-.03-.05-.03-.09v-.06Z"/>
        <path class="cls-1" d="m161.51,82.75c.6-.07.94-.12,1.02-.15.05-.02.1-.08.15-.19v-.07c0-.1.02-.48.05-1.12,0-.18.01-.36.01-.53l-.02-.74v-.84s0-1.55,0-1.55v-1.11c.01-.47-.03-.76-.1-.86-.08-.1-.27-.18-.59-.22-.32-.04-.49-.08-.53-.1-.03-.02-.05-.05-.05-.1,0-.03,0-.07.02-.11.04-.04.14-.06.29-.06.02,0,.08,0,.17-.02s.18-.02.26-.02h.51l1.63-.02c.92,0,1.57.07,1.94.2.37.14.66.37.88.69.22.32.33.69.33,1.09,0,.76-.4,1.34-1.19,1.74-.14.07-.24.13-.32.19.14.3.34.65.59,1.07l.79,1.35c.31.5.53.81.65.93s.26.23.44.31c.17.08.46.16.87.24,0,.04,0,.07,0,.1s0,.06,0,.09c-.57,0-1.23.01-1.99.01-.05,0-.13,0-.22-.01-.29-.56-.64-1.18-1.04-1.86l-.92-1.68c-.12-.17-.23-.28-.31-.33-.08-.04-.19-.07-.32-.07h-.53s-.17,0-.17,0c-.01.13-.02.4-.02.81v2.12c0,.08.01.19.05.33.03.08.09.14.17.19.08.05.31.12.7.21l.25.06s.05.1.05.17c-.11.02-.19.03-.24.03-.37,0-.63,0-.79-.01-.08,0-.14,0-.19,0h-.84s-.82,0-.82,0c-.04,0-.22,0-.56.02l-.12-.02v-.06s.02-.08.07-.13Zm2.3-4.05c.11,0,.19,0,.25,0,.3,0,.64-.04,1.03-.11.27-.05.49-.14.66-.26s.31-.3.42-.54c.11-.24.17-.49.17-.74,0-.28-.09-.58-.27-.89-.14-.24-.37-.44-.69-.6s-.71-.24-1.17-.24c-.11,0-.26,0-.43.02-.02.21-.02.38-.02.49l.03,1.16v.48c0,.32,0,.73.02,1.23Z"/>
        <path class="cls-1" d="m174.01,75.3c.03.27.05.43.05.47l-.03.55c0,.24-.02.39-.03.45-.04.02-.07.02-.09.02h-.06c-.13-.59-.36-1.01-.67-1.28s-.7-.4-1.16-.4-.86.13-1.16.4c-.3.26-.45.57-.45.92,0,.27.11.51.32.74.21.22.75.56,1.62,1,.66.34,1.13.62,1.42.84.29.22.5.47.64.75s.22.6.22.96c0,.44-.11.86-.34,1.25-.23.39-.54.68-.93.88-.39.2-.9.29-1.54.29-.56,0-1.09-.09-1.6-.27-.3-.11-.49-.19-.55-.26-.07-.07-.1-.14-.1-.21,0-.05,0-.1.01-.17.06-.49.09-.89.09-1.2,0-.19.02-.31.04-.34.02-.03.05-.04.09-.04.04,0,.07.01.09.04.02.03.04.08.05.15.04.51.28.96.71,1.36.42.4.9.6,1.43.6.33,0,.63-.07.9-.2.27-.14.49-.33.64-.59.15-.26.23-.51.23-.75,0-.33-.12-.64-.35-.92-.24-.28-.71-.6-1.42-.97s-1.17-.64-1.39-.81c-.35-.28-.61-.57-.78-.88-.13-.24-.19-.52-.19-.84,0-.57.23-1.06.68-1.46.45-.4,1.06-.6,1.83-.6.42,0,.79.05,1.09.14.22.07.45.2.69.37Z"/>
        <path class="cls-1" d="m175.4,83.04v-.14c.15-.08.31-.13.5-.15.29-.04.48-.08.56-.11.08-.04.13-.09.17-.16.06-.14.09-.27.09-.42v-.47s0-.43,0-.43v-.51c-.01-.21,0-.47,0-.79.01-.32.02-.48.02-.51v-1.69c0-.27,0-.56.02-.87.01-.31.02-.53.02-.65,0-.36,0-.56-.02-.62-.02-.06-.05-.1-.09-.12-.04-.02-.19-.05-.45-.07-.19-.02-.33-.03-.4-.04-.02-.05-.03-.08-.03-.11,0-.03,0-.07,0-.12.1,0,.18-.01.23-.01h.58c.41,0,.85-.01,1.31-.04.23-.02.57-.03,1.03-.04,0,.04.01.07.01.1,0,.04,0,.07-.03.1-.02.02-.05.04-.1.05-.54.05-.86.11-.96.2-.1.09-.14.31-.14.68,0,.67,0,1.36.03,2.07l.02.58s.29.04.81.06c.14,0,.22.01.25.01h.91s.6,0,.6,0l1.57-.05c.19,0,.31-.01.35-.02.02-.72.04-1.41.04-2.08s-.01-1.03-.04-1.14c-.02-.07-.05-.12-.09-.14-.03-.01-.24-.04-.64-.1-.07,0-.14-.02-.2-.03-.02-.06-.03-.14-.03-.22.14-.02.23-.03.27-.03l.41.02c.38.02.75.03,1.13.03.24,0,.65-.02,1.21-.06,0,.08-.01.16-.03.22-.16.06-.34.1-.56.12-.14,0-.26.03-.35.07-.08.06-.12.18-.12.35,0,.04,0,.09,0,.14,0,.15,0,.25,0,.29v1.16s0,.58,0,.58v1.08s0,1.02,0,1.02c0,.2,0,.52.02.95v.84c0,.28.02.48.07.6.02.06.07.1.12.12l.5.11c.25.06.4.11.44.15.05.04.07.09.07.14l-.02.07h-.03s-.05,0-.08,0c-.45-.08-.92-.12-1.42-.12-.39,0-.66,0-.83.02s-.5.06-1.02.14c0-.05-.01-.09-.01-.12,0-.03,0-.07.01-.12.13-.07.33-.13.61-.15.21-.02.37-.09.49-.2.08-.07.12-.18.12-.33v-.89c0-.27.01-.42.01-.44,0-.35,0-.86-.02-1.54-.01-.06-.04-.09-.07-.11-.11-.04-.66-.03-1.65.02-.2.01-.35.02-.45.02s-.31,0-.62-.02c-.32-.01-.61-.02-.88-.02-.14,0-.27,0-.37,0-.19,0-.29,0-.32,0-.09,0-.16.02-.19.06-.04.04-.05.11-.05.2v.43c0,.07,0,.46-.03,1.17,0,.14,0,.26,0,.36,0,.57.02.94.06,1.13.02.09.06.15.11.18.04.02.2.07.48.13.19.04.33.08.43.12l.04.06s0,.04-.03.05c-.02.02-.06.03-.11.03-.03,0-.07,0-.12,0-.05,0-.13,0-.27,0-.21,0-.47-.02-.79-.04-.2-.02-.38-.02-.54-.02-.26,0-.69.01-1.27.04-.11,0-.21,0-.29,0Z"/>
        <path class="cls-1" d="m185.07,82.74c.09-.04.18-.06.28-.07.63-.04.99-.12,1.08-.23.09-.11.14-.64.14-1.59v-.65s0-.68,0-.68l-.02-.75v-.44s0-.48,0-.48v-.82s0-.32,0-.32c0-.07,0-.16,0-.26,0-.26-.01-.54-.04-.82-.02-.06-.04-.11-.07-.17-.15-.08-.4-.13-.74-.16s-.53-.06-.58-.09c-.03-.02-.05-.09-.06-.19h.52l1.64.04c.42,0,.98-.01,1.69-.04,0,.07,0,.13-.01.19-.08.02-.22.04-.42.07-.39.05-.63.09-.72.13-.05.02-.09.06-.12.1-.04.07-.07.21-.07.42l-.03.8.02,2.76v1.09c0,.34-.01.58-.01.7,0,.46.01.76.04.89.02.13.06.22.12.28s.15.1.28.13c.19.05.34.07.45.07.23,0,.38.04.44.1.01.05.02.1.02.14v.05c-.38.01-.65.02-.83.02-.1,0-.29,0-.55-.02h-.86s-1.46,0-1.46,0h-.12v-.19Z"/>
        <path class="cls-1" d="m189.57,75.04c.07-.01.12-.02.14-.02.14,0,.37,0,.69.02.17,0,.29,0,.35,0,.09,0,.28,0,.58-.02l1.05-.06c.28-.02.6-.04.97-.04.65,0,1.16.09,1.55.28.38.18.68.47.89.86.21.39.31.78.31,1.17,0,.65-.23,1.21-.68,1.68-.45.47-1.07.71-1.83.71-.21,0-.39-.02-.54-.07-.14-.04-.31-.13-.5-.25-.08-.05-.13-.11-.14-.17.02-.03.04-.05.07-.06.06,0,.12.01.18.04.14.05.32.07.53.07.33,0,.64-.08.93-.24.29-.16.51-.39.66-.69.15-.3.22-.61.22-.94s-.08-.63-.24-.94c-.16-.3-.36-.55-.62-.73-.14-.1-.37-.19-.67-.26-.3-.07-.53-.1-.7-.1-.51,0-.81.04-.91.11v.09s.01.7.01.7v.12c-.01.11-.02.28-.02.51,0,.84.01,1.37.04,1.57v.35l.08,2.83s0,.12-.02.23c-.01.11-.02.21-.02.29,0,.2.02.35.05.45.1.03.39.1.87.2.22.05.34.08.37.09.03.01.06.04.09.08-.02.06-.04.1-.06.12-.03.02-.08.03-.16.03-.05,0-.17-.01-.35-.03-.36-.04-.63-.06-.84-.06l-1.09.04-.65-.02s-.16,0-.36.01v-.16s.8-.15.8-.15c.13-.04.21-.07.24-.11.04-.06.06-.17.06-.34,0-.04,0-.12,0-.24,0-.09,0-.21,0-.36,0-.49-.02-1.52-.06-3.11-.02-.74-.03-1.5-.03-2.27v-.11c0-.3-.04-.48-.14-.56-.15-.14-.54-.25-1.15-.33-.02-.05-.03-.08-.03-.11,0-.03.01-.07.04-.12Z"/>
      </g>
      <g>
        <path class="cls-1" d="m130.83,52.68c-3.14-1.28-6.74-4.6-8.43-8.17-.16,0-.21.02-.39.02-3.14,4.71-7.62,8.17-10.64,9.38l-.07-.19c3.04-1.9,6.25-5.25,8.75-9.01.63-.95.7-1.3.79-1.72l2.16.65c.16.05.4.16.4.42,0,.28-.21.32-.58.37,1.37,2.37,4.9,5.74,10.13,6.69v.19c-.65.26-1.51.63-2.11,1.37Zm.12,3.48h-9.5c-.23.49-.35.72-.6,1.16-.95,1.58-2,3.09-3.16,4.51,2.58-.14,2.95-.19,9.47-.88-.67-1.25-1.51-2.42-2.62-3.3l.14-.14c5.13,2.6,5.46,5.34,5.46,5.71,0,.49-.33.98-.88.98-.63,0-.86-.49-1-.84-.33-.84-.53-1.35-.93-2.11-8.34,1.79-9.52,2.04-12.03,2.42-.26.46-.33.53-.46.53-.12,0-.21-.09-.3-.33l-.91-2.11c.72.12,1.11.14,1.72.14s1.53-.02,2.02-.05c.79-1.86,1.46-3.76,2.04-5.69h-3.18c-.46,0-1.88.05-2.97.26l-.56-1c1.21.12,2.65.19,3.86.19h11.26l1.09-1.11c.25-.26.28-.28.35-.28.14,0,.33.16.44.23l1.37,1.11c.09.07.23.19.23.35,0,.26-.23.26-.35.26Zm-5.06-3.99h-5.71c-.81,0-2.11.09-3,.26l-.53-1c1.74.14,3.41.19,3.86.19h2.69l.95-1c.23-.26.28-.28.37-.28.12,0,.33.16.42.23l1.09,1c.09.09.21.21.21.35,0,.21-.19.26-.35.26Z"/>
        <path class="cls-1" d="m142.51,61.83c-.33.05-.51.05-1.09.14-2.46,1.39-5.36,2.44-7.69,2.53l-.05-.16c1.62-.46,3.69-1.51,4.81-2.16,1.79-1.07,2.07-1.53,2.35-2.21l1.9,1.21c.19.12.23.19.23.3,0,.14-.05.28-.46.35Zm8.66-10.27c0,.86-.02,1.14.05,3.67.02,1.18.14,3.07.14,4.25,0,.26,0,.51-.33.77-.21.14-.44.21-.58.21-.46,0-.46-.33-.46-.93h-11.01c-.05.7-.07,1.21-.98,1.21-.44,0-.49-.3-.49-.56,0-.72.09-1.83.12-2.53.07-1.7.09-3.14.09-4.18,0-2.74-.12-3.25-.28-3.79l1.72.65h10.66l.42-.44c.16-.19.25-.28.37-.28.09,0,.21.09.35.19l.79.6c.23.19.33.3.33.44,0,.26-.28.39-.91.72Zm-.02-6.41c-.07.05-.46.28-.53.35,0,.65,0,.93.02,1.39,0,.21.07,1.16.07,1.35,0,.56-.35.88-.81.88-.53,0-.53-.35-.51-.77h-9.75c0,.19.02.39-.07.58-.14.33-.58.44-.81.44s-.51-.09-.51-.42c0-.14.09-.77.09-.91.02-.46.05-.88.05-1.18,0-.72,0-2.81-.12-3.32l1.67.95h9.27l.53-.58c.07-.09.21-.26.33-.26.09,0,.19.09.3.19l.81.65c.14.12.21.19.21.33s-.07.21-.23.33Zm-1.16,5.74h-10.99v2.21h10.99v-2.21Zm0,2.76h-10.99v2.18h10.99v-2.18Zm0,2.74h-10.99v2.58h10.99v-2.58Zm-.58-11.33h-9.8v2.74h9.8v-2.74Zm2.79,19.37c-.56,0-.86-.33-1.46-.98-1.16-1.28-1.67-1.67-4.25-3.11l.05-.09c2.62.51,4.46,1.25,5.23,1.72.28.19,1.23.81,1.23,1.74,0,.56-.46.72-.79.72Z"/>
        <path class="cls-1" d="m165.87,45.93c-2.81,5.02-6.69,8.31-10.15,9.54l-.09-.19c4.62-2.9,7.69-7.06,8.99-10.17h-2.16c-.46,0-1.88.05-2.97.28l-.56-1.02c1.21.12,2.65.19,3.86.19h1.46l.7-.46c.19-.12.25-.14.35-.14.16,0,.3.14.46.28l.74.7c.14.14.28.28.28.46,0,.3-.23.37-.91.53Zm10.68,17.72h-16.37c-.46,0-1.88.05-2.97.28l-.56-1c1.21.09,2.65.16,3.86.16h7.31c.42-1.07.86-2.65.86-3.34,0-.09,0-.23-.05-.46h-5.53c.42.23,2.14,1.42,2.14,2.62,0,.49-.44.86-.88.86-.58,0-.65-.39-.81-1.56-.14-.86-.21-1.16-.6-1.79l.14-.14h-.53c-.16.63-.81.63-.88.63-.28,0-.39-.12-.39-.46,0-.12,0-.3.02-.4.05-.6.05-1.49.05-2.11,0-.74,0-1.6-.16-2.83l1.39.72h7.64l.49-.4c.19-.16.21-.19.28-.19s.21.09.28.14l.86.63c.09.07.21.21.21.35,0,.09-.02.21-.14.3-.07.05-.46.23-.56.28,0,.35,0,.65.05,1.51,0,.21.07,1.21.07,1.44,0,.79-.86.84-.93.84-.28,0-.42-.16-.42-.44h-1.46l1.46.84s.28.19.28.33c0,.21-.16.3-.72.56-.02.02-.12.16-.19.23-.44.51-1.14,1.35-1.58,1.86h5.62l1.04-1.07c.23-.26.26-.28.35-.28.16,0,.3.14.39.23l1.09,1.07c.05.07.21.21.21.35,0,.26-.25.26-.35.26Zm-15.37-14.1c-.44,0-.53-.23-.91-1.07-.58-1.35-.95-1.79-1.28-2.18l.16-.12c.72.35,1.39.81,2.02,1.32.35.28.77.65.77,1.23s-.46.81-.77.81Zm9.34,2.95h-4.41c-.81,0-2.11.12-3,.28l-.53-1c1.74.14,3.41.16,3.86.16h1.97l.72-.74c.23-.26.26-.28.35-.28.14,0,.33.14.42.23l.72.74c.19.21.26.23.26.37,0,.23-.28.23-.35.23Zm-.12,2.88h-7.83v3.34h7.83v-3.34Zm5.09-1.74c-3.44-2.02-6.64-4.64-8.22-10.06l.28-.14c.4,1.21.88,2.37,1.86,3.67.58-.6,1.88-2.23,2.07-3.34l1.44,1.07c.12.07.25.23.25.37,0,.3-.37.3-.93.3-1.28.93-1.97,1.42-2.67,1.81.77.98,1.21,1.39,1.74,1.88,1.28-1.21,2.21-2.76,2.44-3.37l1.44,1.07c.4.28.4.33.4.44,0,.28-.33.28-.44.28-.26,0-.42-.02-.67-.07-1.39.88-2.04,1.3-2.97,1.81,1.25,1.04,3.48,2.55,6.34,2.74v.16c-1.04.33-1.86.56-2.35,1.37Z"/>
        <path class="cls-1" d="m186.79,48.39c-.46,0-.56-.14-1.18-1.35-.09-.16-.79-1.18-1.72-1.79-1.6,2.83-4.23,6.04-5.74,7.08l-.09-.07c2.09-2.74,4.23-6.78,4.53-7.73.26-.74.23-.93.19-1.28l1.83.84c.09.05.14.14.14.26,0,.23-.16.35-.67.58l-.02.07c1.04.21,2.11.98,2.46,1.23.51.37.95.74.95,1.32,0,.39-.21.84-.67.84Zm.21,6.36h-3.18v6.9c1.28-.23,2.07-.46,2.58-.6l.09.16c-1.09.53-6.06,2.18-6.41,2.25-.02.3-.05.7-.37.7-.16,0-.26-.14-.33-.28l-.93-1.72c.23.05.44.09.79.09.56,0,2.37-.23,3.39-.4v-7.11h-.65c-.81,0-2.11.12-3,.28l-.53-1c1.74.14,3.41.16,3.85.16h.33v-3.07h-.88c-.37,0-.91.02-1.28.12l-.23-.77c.42.02,1.3.09,1.65.09h2.37l.51-.6c.19-.23.3-.32.42-.32s.19.07.44.32l.51.53c.19.19.23.26.23.37,0,.16-.14.26-.35.26h-2.21v3.07h1.32l.54-.63c.19-.21.25-.3.37-.3.14,0,.23.09.46.3l.6.58c.14.14.23.23.23.37,0,.21-.19.23-.35.23Zm-6.34,5.6c-.51,0-.65-.37-.72-.91-.12-.98-.51-2.02-1-2.46l.12-.16c.63.3,2.35,1.42,2.35,2.62,0,.53-.3.91-.74.91Zm5.88-2.65c-.14.19-.21.35-1,1.42-.16.23-.63.77-.95,1.14l-.12-.07c.42-1.02.81-2.69.86-2.88.02-.19.12-1,.16-1.16l1.6.86c.21.12.3.14.3.3,0,.26-.46.33-.86.4Zm1.93,3.67c-.05.42-.07.6-.28.6-.12,0-.26-.12-.33-.23l-1-1.56c.53,0,1.35-.33,1.9-.56,1.14-.46,2.28-.95,3.3-1.65l.09.16c-.51.7-2.6,2.37-3.69,3.23Zm9.94,1.37c-2.95-3.41-3.83-6.25-4.18-10.59h-.51v3.48c0,1.23,0,1.56.12,4.39,0,.28.07,1.53.07,1.79,0,1.77-1.28,2.25-2.21,2.58-.37-1.18-.86-1.49-2.02-2.07v-.12c.35.02,1.81.09,2,.09.65,0,.98-.14,1.02-.63.02-.46,0-8.5,0-9.52h-1.9c-.84,0-2.11.09-3,.26l-.54-1c1.72.14,3.41.19,3.86.19h3.9l.07-3.25h-3.02c-.81,0-2.11.09-3,.28l-.54-1c1.74.14,3.41.16,3.86.16h2.69l.05-2.6h-3.27c-.84,0-2.11.09-3,.28l-.56-1.02c1.74.16,3.44.19,3.88.19h2.81l.49-.51c.07-.09.19-.21.33-.21.09,0,.23.09.37.19l.84.56c.09.05.23.16.23.3,0,.19-.19.33-.91.7l-.12,5.95h1.39l.53-.63c.14-.19.23-.28.35-.28s.26.14.37.26l.53.56c.21.21.26.26.26.39,0,.21-.19.26-.35.26h-4.78c.16,2.09.7,3.48,1.02,4.32.54-.4,1.21-1.09,1.6-1.65.26-.4.4-.77.46-1l1.39,1.02c.07.05.19.14.19.3,0,.14-.14.33-.37.33-.09,0-.26-.02-.37-.05-1.02.58-2.25,1.11-2.79,1.3.98,2.16,2.46,3.88,4.55,4.95v.09c-1.04.07-1.58.7-1.81.98Zm-8.2-5.95c-.49,0-.56-.23-.91-1.16-.09-.21-.67-1.3-1.11-1.67l.09-.12c.23.09.33.14,1.18.46.84.32,1.51,1.02,1.51,1.63,0,.42-.28.86-.77.86Z"/>
      </g>
      <g>
        <path class="cls-1" d="m106.41,111.11c-1.07-.45-2.26-1.16-3.54-2.11s-2.36-1.95-3.21-2.99c-.72.98-1.75,1.97-3.09,2.98-1.34,1-2.57,1.75-3.69,2.23l-.55-.77c.93-.39,2.11-1.12,3.53-2.19s2.42-2.07,2.98-3h1.55c.78.97,1.8,1.92,3.07,2.85s2.5,1.64,3.69,2.11l-.73.89Zm-12.9,7.36l-.15-.98c.52,0,1.21-.03,2.07-.06.76-1.05,1.48-2.26,2.18-3.63h-4.39v-.91h12.94v.91h-7.2c-.73,1.29-1.48,2.49-2.26,3.57,3.06-.14,5.31-.29,6.76-.46-.7-.85-1.26-1.48-1.69-1.89l.92-.51c.41.38.96.95,1.64,1.73.68.78,1.19,1.4,1.52,1.86l-1.06.52c-.16-.24-.39-.55-.67-.92-.94.12-2.61.26-5.01.43-2.41.16-4.27.27-5.58.33Zm2.26-7.81v-.9h7.91v.9h-7.91Z"/>
        <path class="cls-1" d="m108.19,118.62l-.37-.86c.65-.12,1.42-.33,2.32-.63s1.56-.58,2-.83l.78.75c-.53.32-1.28.63-2.23.94-.96.31-1.79.52-2.5.63Zm.95-2.46v-6.58h10.89v6.58h-10.89Zm.55-7.4v-3h9.9v3h-9.9Zm.56,2.69h8.67v-1.05h-8.67v1.05Zm0,1.87h8.67v-1.05h-8.67v1.05Zm8.67.81h-8.67v1.14h8.67v-1.14Zm-.42-7.53h-7.74v1.32h7.74v-1.32Zm2.37,12.01c-.77-.15-1.63-.37-2.58-.67-.95-.3-1.67-.6-2.17-.89l.75-.78c1.33.57,2.85,1.03,4.56,1.38l-.56.97Z"/>
        <path class="cls-1" d="m122.95,115.31l-.64-.57c.54-.72,1.08-1.68,1.62-2.87.54-1.19.87-2.13.97-2.81h-1.97v-.89h2.07v-2.84h1.13v2.84h1.28v.89h-1.28v1.6c.21.33.72.87,1.53,1.6l-.6.81c-.27-.29-.58-.7-.93-1.21v6.72h-1.13v-6.8c-.51,1.29-1.19,2.47-2.05,3.53Zm4.43,2.07l-.42-.89c1.25-.41,2.53-.97,3.84-1.68l.24.86c-.44.29-1.67.86-3.67,1.71Zm3.96,1.07h-1.71l-.14-1h1.41c.41,0,.62-.17.62-.52v-4.93h-3.69v-.86h3.69v-1.24h-3.35v-.83h3.35v-1.24h-3.65v-.84h1.97l-.71-1.46,1.01-.31.86,1.77h2.27l.88-1.76,1.1.29-.89,1.46h2.06v.84h-3.78v1.24h3.4v.83h-3.4v1.24h4.03v.86h-4.03v.62c.22.61.58,1.2,1.07,1.78.74-.44,1.46-.99,2.16-1.65l.76.69c-.78.62-1.55,1.16-2.3,1.63,1.05,1.03,1.94,1.77,2.67,2.21l-.8.78c-1.47-1.03-2.66-2.25-3.57-3.68v3.03c0,.28-.12.52-.37.73s-.55.3-.91.3Zm-2.09-3.85c-.23-.37-.63-.92-1.22-1.65l.86-.52c.48.57.89,1.12,1.23,1.63l-.87.53Z"/>
        <path class="cls-1" d="m141.5,109.99c.2.23.47.65.83,1.27.28.65.42,1.29.42,1.93v.03c0,.37-.03.7-.1,1.01-.07.31-.16.57-.29.78-.12.22-.28.39-.47.53s-.38.23-.59.27c-.21.05-.51.07-.92.07h-.37l-.18-.95c.36,0,.66,0,.9-.01s.43-.08.56-.22.23-.32.29-.56c.06-.24.09-.54.09-.88,0-1.04-.39-2.06-1.18-3.05h0s0-.07-.02-.14-.02-.11-.02-.12c.16-.41.37-1.03.62-1.85s.37-1.33.37-1.52h-2.07v12.03h-1.05v-12.91h4.26l.23.27c-.14.55-.36,1.29-.66,2.24s-.52,1.54-.67,1.79Zm.97,8.5l-.24-.93c.33-.03.83-.08,1.5-.16v-11.7h6.55v6.35h-2.81c.24.71.58,1.45,1.02,2.21.85-.52,1.64-1.06,2.34-1.63l.76.77c-.62.43-1.49.96-2.64,1.6.74,1.04,1.63,1.96,2.67,2.76l-.79.75c-2.1-1.63-3.58-3.78-4.44-6.45h-1.53v5.21c1.46-.2,2.57-.38,3.32-.56l.05.87c-1.48.38-3.4.68-5.76.92Zm2.39-10.06h4.31v-1.9h-4.31v1.9Zm4.31.82h-4.31v1.98h4.31v-1.98Z"/>
        <path class="cls-1" d="m156.34,114.84c.62.91,1.52,1.55,2.68,1.93l.14.04v-6.82h-4.01v-.89h9.07v.89h-3.9v2.72h4.77v.87h-4.77v3.52c.88.16,2.14.24,3.76.24.47,0,1.29-.01,2.48-.04l-.25.95h-1.23c-1.6,0-2.76-.02-3.5-.07s-1.44-.15-2.13-.29-1.34-.39-1.98-.74-1.15-.76-1.54-1.22c-.57,1.1-1.41,1.97-2.53,2.61l-.58-.74c.67-.41,1.21-.91,1.6-1.49s.68-1.2.85-1.86.26-1.56.26-2.71v-.26h1.11c0,1.45-.1,2.56-.31,3.34Zm8.91-5.43v-1.69h-11.04v1.79h-1.05v-2.7h6.04v-1.63h1.18v1.63h5.97v2.6h-1.09Z"/>
        <path class="cls-1" d="m175.03,117.95l-.29-.99c1.57-.14,2.92-.6,4.03-1.37,1.12-.77,1.67-1.92,1.67-3.46,0-1.37-.45-2.42-1.35-3.17-.9-.75-2.16-1.14-3.77-1.19-.05,2.63-.53,4.82-1.41,6.58s-2,2.64-3.34,2.64c-.83,0-1.48-.35-1.96-1.06-.48-.71-.71-1.57-.71-2.58,0-1.67.72-3.18,2.17-4.52s3.16-2,5.13-2c1.86,0,3.39.47,4.6,1.4,1.21.93,1.81,2.2,1.81,3.81,0,1.84-.61,3.24-1.82,4.21s-2.8,1.54-4.76,1.7Zm-.85-10.08c-1.42.21-2.63.86-3.65,1.92-1.02,1.07-1.53,2.27-1.53,3.61,0,.71.15,1.32.45,1.81s.71.74,1.25.74c.91,0,1.71-.85,2.39-2.56.68-1.71,1.05-3.55,1.11-5.53Z"/>
        <path class="cls-1" d="m182.9,114.39l-.34-.94c.51-.11,1.43-.39,2.75-.84v-3.43h-1.3c-.16.87-.37,1.59-.62,2.15l-.92-.29c.2-.5.37-1.22.53-2.14s.24-1.85.24-2.77h1.08c-.03.77-.09,1.5-.19,2.2h1.17v-3.03h1.11v3.03h1.18v.84h-1.18v3.04c.62-.22,1.11-.41,1.49-.56l.23.81c-.29.18-.86.42-1.71.75v5.42h-1.11v-5.02c-.98.34-1.79.6-2.42.78Zm4.83,2.07l-.69-.55c.8-.86,1.54-2,2.21-3.41s1.13-2.81,1.38-4.2h-1.05c-.44.95-.92,1.76-1.42,2.43l-.81-.49c.97-1.41,1.66-3.07,2.07-5l1.12.15c-.14.72-.35,1.43-.63,2.11h6.17v4.75c0,1.17-.05,2.19-.15,3.08-.1.89-.22,1.51-.36,1.86s-.33.63-.58.82-.49.32-.72.37-.8.08-1.7.08c-.23,0-.42,0-.56,0l-.17-.98h1.53c.35,0,.65-.13.89-.38.24-.25.42-.83.53-1.73.11-.9.16-1.95.16-3.15v-3.91h-.77c-.25,2.21-.79,4.21-1.62,6.02-.83,1.81-1.77,3.18-2.82,4.11l-.7-.6c1.01-1.02,1.9-2.42,2.66-4.21s1.24-3.56,1.44-5.32h-1.44c-.22,1.34-.68,2.78-1.4,4.31s-1.56,2.82-2.55,3.85Z"/>
        <path class="cls-1" d="m199.74,118.57v-7.59c-.56.91-1.12,1.68-1.7,2.31l-.72-.6c.83-1.04,1.62-2.27,2.35-3.68.73-1.41,1.23-2.67,1.49-3.77l1.16.21c-.26,1.01-.86,2.38-1.79,4.12h.37v9h-1.16Zm2.23-5.24v-.9h4.5v-3.69h-2.45c-.39.94-.75,1.63-1.08,2.07l-.9-.42c.34-.54.69-1.27,1.05-2.21.36-.94.61-1.76.74-2.47l1.11.18c-.11.54-.3,1.18-.57,1.94h2.1v-2.61h1.18v2.61h3.76v.92h-3.76v3.69h4.31v.9h-4.31v5.13h-1.18v-5.13h-4.5Z"/>
        <path class="cls-1" d="m221.73,115.79h-1.08v-2.4c0-.28,0-.52-.02-.73-2.25,1.13-3.37,2.15-3.37,3.07,0,.46.25.82.75,1.09.5.27,1.56.41,3.18.41,1.92,0,3.45-.09,4.59-.27l.07,1.06c-1.16.14-2.5.21-4.03.21-2.35,0-3.88-.21-4.59-.62s-1.07-1-1.07-1.76c0-.68.31-1.35.94-2.01.63-.66,1.73-1.38,3.3-2.15-.2-.44-.56-.66-1.08-.66-.59,0-1.22.11-1.89.32-.68.21-1.51.75-2.52,1.6l-1.22,1.03-.63-.75c1.79-1.39,3.12-2.99,4-4.8h-3.41v-.95h3.82c.22-.58.4-1.17.52-1.76l1.22.1c-.12.56-.29,1.11-.5,1.66h5.44v.95h-5.83c-.27.56-.75,1.3-1.43,2.23l.11.06c.19-.12.57-.24,1.13-.36.56-.11.99-.17,1.3-.17.95,0,1.59.35,1.94,1.06l4.31-1.66.48.99c-1.02.33-2.52.87-4.53,1.62.06.37.09.83.09,1.38v2.22Z"/>
        <path class="cls-1" d="m132.16,139.57h-1.53l-.11-.98h1.17c.36,0,.53-.15.53-.45v-4.33c-.72.27-1.33.5-1.85.67l-.27-1c.45-.11,1.16-.34,2.12-.69v-3.01h-1.73v-.87h1.73v-2.71h1.15v2.71h1.42v.87h-1.42v2.58c.66-.25,1.16-.46,1.48-.61l.2.81c-.29.18-.85.44-1.68.78v5.15c0,.33-.11.59-.33.78-.22.19-.51.29-.88.29Zm9.01-2.64c0,.2-.1.38-.3.54s-.49.26-.86.29c-.37.03-.99.05-1.84.05-.79,0-1.3-.03-1.54-.09s-.43-.17-.55-.33-.18-.38-.18-.65v-2.48c-.51.49-.97.88-1.38,1.18l-.56-.66c.41-.27.91-.74,1.51-1.4s1.08-1.29,1.44-1.9h-1.02v-4.89h7.01v4.89h-4.8c-.24.43-.46.79-.66,1.07h6.14v1.83c.01,1.34-.05,2.43-.19,3.27-.14.83-.36,1.35-.66,1.53s-.59.3-.85.33-.96.04-2.1.03l-.12-.97c.82,0,1.36,0,1.63-.03.26-.03.46-.09.6-.19.14-.1.25-.27.33-.5s.14-.71.18-1.42.05-1.72.03-3h-5.54v1.38c1.66-.27,2.88-.55,3.65-.83l.38.73c-.79.27-2.14.53-4.04.8v.81c0,.31.09.5.27.56s.5.1.95.1c.33,0,.66,0,1.01-.02.34-.01.57-.03.67-.04.11,0,.2-.05.29-.12s.15-.18.19-.31.06-.42.06-.85l.86.09v1.21Zm-4.17-8.25h4.77v-1.28h-4.77v1.28Zm4.77.75h-4.77v1.27h4.77v-1.27Z"/>
        <path class="cls-1" d="m156.12,136.42c.21.39.49.78.82,1.18.33.39.6.59.79.59s.32-.21.38-.62.11-.97.12-1.69l.9.15c0,.74-.06,1.44-.15,2.08-.09.65-.21,1.05-.38,1.2s-.39.23-.68.23c-.21,0-.41-.05-.61-.14s-.48-.34-.87-.75c-.38-.41-.72-.83-1.01-1.28-.67.89-1.34,1.63-2.02,2.2l-.63-.64c.73-.66,1.43-1.5,2.1-2.51-.73-1.49-1.19-3.54-1.37-6.13h-8.08v-.86h3.38v-1.23h-2.78v-.86h2.78v-1.05h1.17v1.05h2.63v.86h-2.63v1.23h3.48l-.04-3.2h1.21v1.4c0,.78,0,1.38.02,1.8h3.97v.86h-3.93c.13,2.1.42,3.76.88,4.98.73-1.31,1.25-2.56,1.58-3.73l1.1.32c-.41,1.46-1.13,2.98-2.15,4.55Zm-10.65,1.75v-.76h3.41v-.89h-2.78v-3.55h2.78v-.83h-3.05v-.73h3.05v-.59h1.03v.59h3.08v.73h-3.08v.83h2.74v3.55h-2.74v.89h3.16v.76h-3.16v1.33h-1.03v-1.33h-3.41Zm1.63-3.74h1.77v-.83h-1.77v.83Zm1.77.61h-1.77v.86h1.77v-.86Zm1.03-.61h1.73v-.83h-1.73v.83Zm1.73.61h-1.73v.86h1.73v-.86Zm5.21-6.09c-.25-.5-.62-1.16-1.12-1.98l.92-.38c.32.5.71,1.15,1.18,1.93l-.97.43Z"/>
        <path class="cls-1" d="m172.17,134.9h-4.51v4.65h-1.15v-4.65h-4.39v.69h-1.12v-6.96h5.51v-2.28h1.15v2.28h5.61v6.96h-1.1v-.69Zm-10.05-.86h4.39v-4.56h-4.39v4.56Zm5.54,0h4.51v-4.56h-4.51v4.56Z"/>
        <path class="cls-1" d="m182.99,127.61l-.2,8.03h-1.14l-.21-8.03h1.55Zm-.03,11.04h-1.49v-1.55h1.49v1.55Z"/>
      </g>
    </g>
  </g>
</svg>