<?xml version="1.0" encoding="UTF-8"?>
<svg id="_レイヤー_2" data-name="レイヤー 2" xmlns="http://www.w3.org/2000/svg" viewBox="0 0 318.48 182.58">
  <defs>
    <style>
      .cls-1 {
        fill: #f7ada5;
      }

      .cls-2 {
        fill: #fff;
      }
    </style>
  </defs>
  <g id="_レイヤー_1-2" data-name="レイヤー 1">
    <g>
      <g>
        <rect class="cls-1" width="318.48" height="182.58"/>
        <polygon class="cls-2" points="311.85 162.77 311.85 176.61 298 176.61 311.85 162.77"/>
      </g>
      <g>
        <g>
          <path class="cls-2" d="m130.76,82.8c.6-.07.94-.12,1.02-.15.05-.02.1-.08.15-.19v-.07c0-.1.02-.48.05-1.12,0-.18.01-.36.01-.53l-.02-.74v-.84s0-1.55,0-1.55v-1.11c.01-.47-.03-.76-.1-.86-.08-.1-.27-.18-.59-.22-.32-.04-.49-.08-.53-.1s-.05-.05-.05-.1c0-.03,0-.07.02-.11.04-.04.14-.06.28-.06.02,0,.08,0,.17-.02s.18-.02.26-.02h.51l1.63-.02c.92,0,1.57.07,1.94.2.37.14.66.37.88.69s.33.69.33,1.09c0,.76-.4,1.34-1.19,1.74-.14.07-.24.13-.32.19.14.3.34.65.59,1.07l.79,1.35c.31.5.53.81.65.93.12.13.27.23.44.31.17.08.46.16.86.24,0,.04,0,.07,0,.1s0,.06,0,.09c-.57,0-1.23.01-1.99.01-.05,0-.13,0-.22-.01-.29-.56-.64-1.18-1.04-1.86l-.92-1.68c-.12-.17-.23-.28-.31-.33-.08-.04-.19-.07-.32-.07h-.53s-.17,0-.17,0c-.01.13-.02.4-.02.81v2.12c0,.08.01.19.05.33.03.08.09.14.17.19.08.05.31.12.7.21l.25.06s.05.1.05.17c-.11.02-.19.03-.23.03-.37,0-.63,0-.79-.01-.08,0-.14,0-.19,0h-.84s-.82,0-.82,0c-.04,0-.22,0-.56.02l-.12-.02v-.06s.02-.08.07-.13Zm2.3-4.05c.11,0,.19,0,.25,0,.3,0,.64-.04,1.03-.11.27-.05.49-.14.66-.26s.31-.3.42-.54c.11-.24.17-.49.17-.74,0-.28-.09-.58-.27-.89-.14-.24-.37-.44-.69-.6s-.71-.24-1.17-.24c-.11,0-.26,0-.43.02-.02.21-.02.38-.02.49l.03,1.16v.48c0,.32,0,.73.02,1.23Z"/>
          <path class="cls-2" d="m138.65,82.89s.08-.06.1-.07c.07-.02.19-.04.36-.05.4-.02.65-.06.74-.11.06-.08.09-.2.09-.35v-.43s0-1.58,0-1.58v-.74s0-1.56,0-1.56l-.03-1.77c0-.42-.03-.66-.08-.71-.07-.08-.29-.12-.66-.14-.16,0-.29-.02-.42-.04-.05-.03-.08-.07-.08-.11,0-.03,0-.07.03-.12.04-.02.07-.03.1-.03.06,0,.13,0,.21,0,.24.02.5.04.75.04h.46s1.09.01,1.09.01c.55,0,.97,0,1.28-.02.3-.01.51-.02.62-.02.09,0,.33,0,.71.02h.88s.11.01.11.01l.51-.02.06.03s.04.07.04.1c0,.06,0,.15-.03.27-.02.12-.03.19-.03.22,0,.43.01.79.04,1.09,0,.02-.02.04-.04.05-.04,0-.08,0-.12-.02-.05-.08-.11-.22-.18-.42-.08-.2-.19-.43-.34-.69-.1-.17-.18-.28-.24-.31-.06-.03-.18-.05-.36-.05-.04,0-.22,0-.56-.01-.09,0-.18,0-.27,0l-1.77.04h-.15c-.23,0-.36.03-.41.09-.07.1-.11.39-.11.87,0,.05.01.54.03,1.49v.86s.1.02.15.02h.11c.07,0,.17,0,.31,0,.21,0,.36.01.43.01.05,0,.09,0,.13,0,.45-.02,1.02-.02,1.72-.02.22-.04.35-.08.38-.13.06-.07.11-.27.14-.58.03-.31.1-.49.21-.53.05,0,.1.01.15.03,0,.03.01.06.01.09s0,.08-.01.14c-.02.15-.03.63-.03,1.44,0,.21.01.45.03.72.02.26.04.41.04.43,0,.04,0,.09-.02.15-.03.02-.06.02-.08.02h-.04c-.07-.12-.13-.29-.19-.54-.11-.42-.22-.68-.34-.78-.12-.1-.31-.16-.57-.16-.06,0-.16,0-.32,0-.15,0-.38,0-.68,0h-.4c-.57,0-.95.01-1.13.04v.21s0,1.14,0,1.14v.72s0,.7,0,.7c0,.42.03.67.08.73.07.09.22.14.46.14h.38s.16,0,.39,0c.23,0,.5,0,.83,0,.8,0,1.33-.03,1.59-.1s.48-.19.65-.36c.17-.17.39-.55.65-1.12.08-.17.16-.25.24-.25.04,0,.08.02.12.05-.12.41-.19.68-.2.81-.05.29-.07.58-.08.89,0,.14-.03.25-.1.34h-.14l-1.74.02h-.78s-1.86.02-1.86.02h-.76c-.09,0-.18,0-.27,0-.74.03-1.29.05-1.64.05-.06,0-.1-.01-.13-.03s-.03-.05-.03-.09v-.06Z"/>
          <path class="cls-2" d="m151.59,75.34c.03.27.05.43.05.47l-.03.55c0,.24-.02.39-.03.45-.04.02-.07.02-.09.02h-.06c-.13-.59-.36-1.01-.67-1.28-.32-.26-.7-.4-1.16-.4s-.86.13-1.16.4-.45.57-.45.92c0,.27.11.51.32.74.21.22.75.56,1.62,1,.66.34,1.13.62,1.42.84.29.22.5.47.64.75s.22.6.22.96c0,.44-.12.86-.34,1.25-.23.39-.54.68-.93.88s-.9.29-1.54.29c-.56,0-1.09-.09-1.61-.27-.3-.11-.49-.19-.55-.26-.07-.07-.1-.14-.1-.21,0-.05,0-.1.01-.17.06-.49.09-.89.09-1.2,0-.19.02-.31.04-.34.02-.03.05-.04.09-.04.04,0,.07.01.09.04.02.03.04.08.05.15.05.51.28.96.71,1.36.42.4.9.6,1.43.6.33,0,.63-.07.9-.2s.49-.33.64-.59c.15-.26.23-.51.23-.75,0-.33-.12-.64-.35-.92-.24-.28-.71-.6-1.42-.97-.71-.37-1.17-.64-1.39-.81-.35-.28-.61-.57-.78-.88-.13-.24-.19-.52-.19-.84,0-.57.23-1.06.68-1.46.45-.4,1.06-.6,1.83-.6.42,0,.79.05,1.09.14.22.07.45.2.69.37Z"/>
          <path class="cls-2" d="m153.05,82.89s.08-.06.11-.07c.07-.02.19-.04.36-.05.4-.02.65-.06.74-.11.06-.08.09-.2.09-.35v-.43s0-1.58,0-1.58v-.74s0-1.56,0-1.56l-.03-1.77c0-.42-.03-.66-.08-.71-.07-.08-.3-.12-.66-.14-.16,0-.3-.02-.42-.04-.05-.03-.08-.07-.08-.11,0-.03.01-.07.03-.12.04-.02.07-.03.1-.03.06,0,.13,0,.21,0,.24.02.5.04.76.04h.46s1.09.01,1.09.01c.54,0,.97,0,1.28-.02.31-.01.51-.02.62-.02.09,0,.33,0,.71.02h.88s.11.01.11.01l.51-.02.06.03s.04.07.04.1c0,.06,0,.15-.03.27s-.03.19-.03.22c0,.43.01.79.04,1.09,0,.02-.02.04-.04.05-.04,0-.09,0-.12-.02-.05-.08-.11-.22-.18-.42s-.19-.43-.34-.69c-.1-.17-.18-.28-.24-.31-.06-.03-.18-.05-.36-.05-.04,0-.23,0-.56-.01-.09,0-.18,0-.27,0l-1.77.04h-.16c-.23,0-.36.03-.41.09-.07.1-.11.39-.11.87,0,.05,0,.54.03,1.49v.86s.09.02.15.02h.11c.07,0,.17,0,.31,0,.21,0,.36.01.43.01.05,0,.09,0,.13,0,.45-.02,1.02-.02,1.72-.02.22-.04.35-.08.38-.13.06-.07.11-.27.14-.58s.1-.49.21-.53c.05,0,.1.01.15.03,0,.03.01.06.01.09s0,.08-.01.14c-.02.15-.03.63-.03,1.44,0,.21.01.45.03.72.02.26.03.41.03.43,0,.04,0,.09-.02.15-.03.02-.06.02-.08.02h-.04c-.07-.12-.13-.29-.19-.54-.11-.42-.22-.68-.34-.78-.12-.1-.31-.16-.57-.16-.06,0-.16,0-.32,0-.15,0-.38,0-.68,0h-.4c-.57,0-.95.01-1.13.04v.21s0,1.14,0,1.14v.72s0,.7,0,.7c0,.42.03.67.08.73.07.09.22.14.46.14h.38s.16,0,.39,0c.22,0,.5,0,.83,0,.8,0,1.33-.03,1.59-.1.26-.07.48-.19.65-.36.17-.17.39-.55.65-1.12.08-.17.16-.25.24-.25.04,0,.08.02.12.05-.12.41-.19.68-.21.81-.04.29-.07.58-.08.89,0,.14-.03.25-.1.34h-.14l-1.74.02h-.78s-1.86.02-1.86.02h-.76c-.1,0-.18,0-.27,0-.74.03-1.29.05-1.64.05-.06,0-.1-.01-.13-.03s-.03-.05-.03-.09v-.06Z"/>
          <path class="cls-2" d="m161.42,82.8c.6-.07.94-.12,1.02-.15.05-.02.1-.08.15-.19v-.07c0-.1.02-.48.05-1.12,0-.18.01-.36.01-.53l-.02-.74v-.84s0-1.55,0-1.55v-1.11c.01-.47-.03-.76-.1-.86-.08-.1-.27-.18-.59-.22-.32-.04-.49-.08-.53-.1s-.05-.05-.05-.1c0-.03,0-.07.02-.11.04-.04.14-.06.28-.06.02,0,.08,0,.17-.02s.18-.02.26-.02h.51l1.63-.02c.92,0,1.57.07,1.94.2.37.14.66.37.88.69s.33.69.33,1.09c0,.76-.4,1.34-1.19,1.74-.14.07-.24.13-.32.19.14.3.34.65.59,1.07l.79,1.35c.31.5.53.81.65.93.12.13.27.23.44.31.17.08.46.16.86.24,0,.04,0,.07,0,.1s0,.06,0,.09c-.57,0-1.23.01-1.99.01-.05,0-.13,0-.22-.01-.29-.56-.64-1.18-1.04-1.86l-.92-1.68c-.12-.17-.23-.28-.31-.33-.08-.04-.19-.07-.32-.07h-.53s-.17,0-.17,0c-.01.13-.02.4-.02.81v2.12c0,.08.01.19.05.33.03.08.09.14.17.19.08.05.31.12.7.21l.25.06s.05.1.05.17c-.11.02-.19.03-.23.03-.37,0-.63,0-.79-.01-.08,0-.14,0-.19,0h-.84s-.82,0-.82,0c-.04,0-.22,0-.56.02l-.12-.02v-.06s.02-.08.07-.13Zm2.3-4.05c.11,0,.19,0,.25,0,.3,0,.64-.04,1.03-.11.27-.05.49-.14.66-.26s.31-.3.42-.54c.11-.24.17-.49.17-.74,0-.28-.09-.58-.27-.89-.14-.24-.37-.44-.69-.6s-.71-.24-1.17-.24c-.11,0-.26,0-.43.02-.02.21-.02.38-.02.49l.03,1.16v.48c0,.32,0,.73.02,1.23Z"/>
          <path class="cls-2" d="m168.89,75.13l.04-.11c.33,0,.67,0,1,.01h.2c.06,0,.13,0,.2,0,.27-.01.75-.02,1.46-.02.14,0,.28,0,.41,0,.13,0,.26,0,.38,0,.03.01.04.03.06.06v.1s-.1.06-.2.06h-.05c-.12,0-.31,0-.57.03-.26.02-.44.07-.52.13-.05.05-.08.1-.08.18,0,.16.07.4.2.73l.94,2.19.33.72c.32.77.63,1.55.94,2.35.03.09.06.17.09.24l.41-1.02c.21-.51.43-1.06.65-1.64l.43-1.16s.03-.11.07-.25c.4-1.09.6-1.79.6-2.08,0-.06-.03-.12-.08-.19s-.15-.12-.27-.16c-.05-.02-.21-.04-.48-.07l-.46-.06s-.06-.08-.06-.11l.02-.05,2.01-.02h.66c.22,0,.38.01.46.04v.05s0,.08-.03.13c-.1.03-.19.05-.27.06-.35.04-.56.09-.64.15-.08.06-.17.17-.26.36l-1.62,4.03c-.51,1.21-.87,2.15-1.08,2.81l-.18.54c-.05.03-.1.05-.14.05-.05,0-.1,0-.15-.02-.49-1.27-.89-2.25-1.2-2.95l-1.9-4.3c-.14-.26-.24-.41-.31-.46-.07-.05-.31-.12-.72-.22-.14-.03-.22-.05-.24-.06-.03-.02-.05-.05-.06-.09Z"/>
          <path class="cls-2" d="m177.9,82.89s.08-.06.11-.07c.07-.02.19-.04.36-.05.4-.02.65-.06.74-.11.06-.08.09-.2.09-.35v-.43s0-1.58,0-1.58v-.74s0-1.56,0-1.56l-.03-1.77c0-.42-.03-.66-.08-.71-.07-.08-.3-.12-.66-.14-.16,0-.29-.02-.42-.04-.05-.03-.08-.07-.08-.11,0-.03,0-.07.03-.12.04-.02.07-.03.1-.03.06,0,.13,0,.21,0,.24.02.5.04.76.04h.46s1.09.01,1.09.01c.54,0,.97,0,1.28-.02.31-.01.51-.02.62-.02.09,0,.33,0,.71.02h.88s.11.01.11.01l.51-.02.06.03s.03.07.04.1c0,.06,0,.15-.03.27-.02.12-.03.19-.03.22,0,.43.01.79.04,1.09,0,.02-.02.04-.04.05-.04,0-.08,0-.12-.02-.04-.08-.11-.22-.18-.42-.08-.2-.19-.43-.34-.69-.1-.17-.18-.28-.24-.31-.06-.03-.18-.05-.36-.05-.04,0-.23,0-.56-.01-.09,0-.18,0-.27,0l-1.77.04h-.16c-.23,0-.36.03-.41.09-.07.1-.11.39-.11.87,0,.05,0,.54.03,1.49v.86s.09.02.15.02h.11c.07,0,.17,0,.31,0,.21,0,.36.01.43.01.05,0,.09,0,.13,0,.45-.02,1.02-.02,1.72-.02.22-.04.35-.08.38-.13.06-.07.11-.27.14-.58.03-.31.1-.49.21-.53.05,0,.1.01.15.03,0,.03.01.06.01.09s0,.08-.01.14c-.02.15-.03.63-.03,1.44,0,.21.01.45.04.72.02.26.03.41.03.43,0,.04,0,.09-.02.15-.03.02-.06.02-.08.02h-.04c-.07-.12-.13-.29-.19-.54-.11-.42-.22-.68-.34-.78-.12-.1-.31-.16-.57-.16-.06,0-.16,0-.32,0-.15,0-.38,0-.68,0h-.4c-.57,0-.95.01-1.13.04v.21s0,1.14,0,1.14v.72s0,.7,0,.7c0,.42.03.67.08.73.07.09.22.14.46.14h.38s.16,0,.39,0c.23,0,.5,0,.83,0,.8,0,1.33-.03,1.59-.1.26-.07.48-.19.65-.36.17-.17.39-.55.65-1.12.08-.17.16-.25.24-.25.04,0,.08.02.12.05-.12.41-.19.68-.2.81-.05.29-.07.58-.08.89,0,.14-.03.25-.1.34h-.14l-1.74.02h-.78s-1.86.02-1.86.02h-.76c-.09,0-.18,0-.27,0-.74.03-1.29.05-1.64.05-.06,0-.1-.01-.13-.03-.02-.02-.03-.05-.03-.09v-.06Z"/>
        </g>
        <g>
          <path class="cls-2" d="m133.87,63.13c-.95.56-2.51.6-4.44.6-4.02,0-4.76,0-4.78-2-.02-1.18-.05-4.18,0-5.71h-3.34l1.37.65c.12.05.33.14.33.37,0,.35-.33.39-.93.49-1.42,3.67-3.51,6.04-8.43,6.97l-.09-.21c3.41-1.28,5.3-3.2,6.2-4.81.81-1.39.91-2.51,1-3.46h-1.81c.05.7-.14,1.28-.95,1.28-.26,0-.54-.07-.54-.4,0-.12.05-.6.07-.72.14-2.48.16-4.76.16-6.5,0-1.65-.02-4.3-.09-5.27-.02-.33-.07-.58-.14-1.02l1.86,1.02h8.75l.49-.6c.09-.12.28-.33.46-.33.12,0,.32.14.39.19l.95.72c.21.16.25.26.25.37,0,.23-.28.44-.77.72-.09.95-.09,1.88-.09,2.58,0,2.44.14,6.48.21,7.76,0,.09.05.46.05.56,0,.46-.56.79-.97.79-.49,0-.49-.21-.49-1.14h-2.67v2.79c0,.49,0,2.72.09,3.07.12.53.74.56,1.32.56,2.97,0,3.07,0,3.65-.05.79-.05,1.25-.3,1.72-1.67.16-.44.56-2.39.67-2.79h.12c.26,3.07.3,3.39.67,3.76.07.05.35.26.39.3.07.07.07.14.07.21,0,.28-.23.65-.72.93Zm-5.32-18.16h-9.62v3.09h9.62v-3.09Zm0,3.65h-9.62v3.11h9.62v-3.11Zm0,3.67h-9.62v3.18h9.62v-3.18Z"/>
          <path class="cls-2" d="m156.65,57.79h-9.78v4.04c0,1.44-.49,2.37-2.48,2.83-.19-1.11-1.56-1.76-1.95-1.95v-.19c.86.07,1.42.07,1.7.07,1.23,0,1.56,0,1.56-1.04v-3.76h-6.41c-.84,0-2.11.12-3,.28l-.56-1c1.74.14,3.44.16,3.88.16h6.08c0-.63-.02-1.6-.33-2.46l1.46.35c.37-.39,2.14-2.16,2.46-2.55h-5.92c-.81,0-2.09.09-2.97.28l-.56-1c1.74.14,3.44.16,3.86.16h5.85l.56-.58c.14-.16.25-.23.42-.23.14,0,.26.09.39.21l1.25,1.11c.09.09.16.19.16.3,0,.37-.3.37-.6.37-.53,0-.77,0-1.07.02-.32.21-1.76,1.02-2.07,1.18-.46.28-1.23.72-1.39.81.05.05.14.09.14.23,0,.21-.28.4-.46.51v1.28h6.92l.95-1.04c.23-.26.28-.3.37-.3.14,0,.42.23.42.26l1.25,1.07c.12.12.23.19.23.35,0,.21-.21.23-.37.23Zm-.33-7.8s-1.21.12-1.35.12c-1.09,1.09-1.21,1.23-1.86,1.7l-.16-.12c.51-.95.79-1.63.91-2.51h-15.14c0,1.81-.58,4.02-1.97,4.02-.37,0-.79-.19-.79-.72s.46-1.04,1.18-1.86c.35-.4,1.09-1.37,1.11-2.86h.19c.12.28.19.49.23.86h10.2c.79-1.28,1.44-2.62,1.83-4.09.14-.49.14-.72.12-1.14l2.04.98c.14.07.25.14.25.3,0,.28-.46.4-1.14.56-.98,1.56-2.28,3.04-2.69,3.39h4.41l.6-.56c.09-.09.26-.21.39-.21.07,0,.12,0,.4.23l1.37,1.16c.12.12.19.19.19.35,0,.12-.05.35-.33.4Zm-14.63-2.48c-.6,0-.77-.49-1.02-1.25-.28-.91-.72-1.81-1.53-2.37l.07-.19c1.9.46,3.28,1.93,3.28,2.97,0,.67-.51.84-.79.84Zm4.78-.28c-.53,0-.58-.12-1.18-1.51-.25-.63-.67-1.42-1.44-2.11l.09-.19c2.04.79,3.3,1.93,3.3,2.97,0,.42-.21.84-.77.84Z"/>
          <path class="cls-2" d="m177.97,53.47c-.26.05-.37.05-1.6.09-.77.58-3.65,2.46-4.64,3l-.09-.14c.79-.72,2.93-3.07,3.25-3.6h-5.64v8.85c0,1.51-.97,2.76-2.69,2.9.02-.42-.02-.65-.35-.98-.09-.09-.91-.88-2.49-1.42l.05-.16c1.16.21,2.83.33,3.23.33.63,0,1-.05,1-.93v-8.59h-6.48c-.81,0-2.09.09-2.97.26l-.56-1c1.74.14,3.44.19,3.86.19h13.19l1-.84c.26-.21.35-.3.53-.3.21,0,.35.14.49.26l1.39,1.3c.14.12.16.26.16.35,0,.35-.39.42-.63.44Zm-4.09-7.06c-1.6,1.23-2.09,1.49-4.57,2.83.44.39.79.84.79,1.42,0,.37-.19,1.02-.84,1.02-.49,0-.6-.21-1.09-1.04-.81-1.37-2.02-2.39-3.39-3.18l.09-.16c1.49.28,2.93.79,4.16,1.7,2-1.6,2.65-2.32,3.34-3.14h-8.73c-.81,0-2.11.09-3,.26l-.53-1c1.74.14,3.41.19,3.86.19h8.43l1.07-.79c.26-.19.33-.23.44-.23s.16,0,.58.3l1.32.95c.12.07.21.23.21.39,0,.49-.32.49-2.14.49Z"/>
          <path class="cls-2" d="m189.42,55.38c-.6,0-.74-.53-.86-.91-.12-.42-.21-.6-.28-.79-.65.16-1.35.3-2.44.51,0,5.53.02,6.13.05,7.36,0,.3.12,1.63.12,1.86,0,.6-.72.93-.98.93-.39,0-.46-.35-.46-.7,0-.23.12-1.21.12-1.42.12-2.6.09-6.8.07-7.83-2.37.46-2.65.53-3.16.63-.02.12-.23.65-.46.65-.05,0-.3,0-.39-.33l-.46-1.77c.63.16.95.16,1.58.16.54,0,1.3-.02,2.14-.07.6-.81,3.55-4.9,3.53-6.94l1.93.91c.12.07.19.19.19.35s-.05.35-.93.49c-1.35,1.95-3.25,4.16-4.2,5.18,1.21-.07,2.42-.14,3.62-.3-.33-.58-.63-1-.95-1.39l.14-.14c.98.53,2.88,1.56,2.88,2.69,0,.46-.28.86-.77.86Zm-6.15,2.39c-.81,2.3-1.51,3.62-2.88,5.2l-.12-.07c.95-1.88,1.86-5.32,1.79-6.48l1.74.63c.16.05.28.12.28.23,0,.14-.16.26-.81.49Zm2.9-12.8c-.63.88-.84,1.16-2.74,3.53.81.51,1.23,1.18,1.23,1.72,0,.42-.23,1.02-.77,1.02-.44,0-.58-.3-1.07-1.42-.51-1.16-1.04-1.65-1.49-2.07v-.12c1.07.33,1.44.51,1.81.67.6-1.16,1.72-3.3,1.72-4.64,0-.19-.02-.37-.05-.53l2.04,1c.09.05.19.12.19.3,0,.33-.14.42-.88.53Zm2.81,15.63c-.51,0-.58-.3-.86-1.3-.35-1.32-.56-1.63-1.3-2.6l.05-.07c2.11,1.04,3,2.21,3,2.95,0,.56-.37,1.02-.88,1.02Zm11.43-10.71c-.39.21-.49.28-.67.42.05,3.27.02,8.78-1.32,11.59-.74,1.56-1.9,2.28-3.51,2.44-.09-.51-.26-1.16-2.21-2.32v-.09c.46.07,2.58.44,3.02.44.65,0,1.09-.23,1.56-1.23,1.25-2.67,1.25-7.69,1.25-9.36,0-1-.02-1.72-.05-2.23h-6.76c-.35.65-1.25,2.46-2.09,3.39l-.16-.09c1.21-2.42,2.65-6.76,2.65-8.62,0-.49-.05-.6-.09-.79l2.28.91c.07.02.16.14.16.23,0,.19-.05.28-.09.35-.07.05-.7.35-.81.44-.42,1.11-.79,2.04-1.56,3.62h6.25l.53-.58c.19-.19.23-.26.33-.26.05,0,.14.07.3.19l1.11,1.02c.07.07.14.21.14.28,0,.12-.12.16-.25.26Zm-6.43,7.43c-.63,0-.77-.44-1.11-1.56-.4-1.28-.95-1.83-1.23-2.11l.09-.14c1.76.81,3.02,1.53,3.02,2.79,0,.14,0,1.02-.77,1.02Z"/>
        </g>
        <g>
          <path class="cls-2" d="m108.26,116.34l-.23-.99c.55-.11,1.29-.27,2.2-.5v-4h-1.85v-.84h1.85v-3.27h-1.94v-.87h4.86v.87h-1.82v3.27h1.64v.84h-1.64v3.72c.99-.26,1.73-.49,2.23-.68l.15.87c-.36.17-1.19.43-2.48.8-1.29.37-2.29.63-2.98.77Zm9.9-2.49h-1.52c-.26,2.42-1.66,4-4.21,4.75l-.42-.78c2.13-.68,3.3-2,3.49-3.96h-1.25v-8.15h6.67v8.15h-1.66v3.13c0,.17.06.3.18.4.12.09.38.14.77.14s.66-.04.81-.13.26-.25.3-.48c.05-.23.08-.68.11-1.36l.92.09v1.19c0,.4-.01.68-.05.84s-.13.3-.26.43c-.14.12-.31.21-.52.26-.21.05-.64.07-1.28.07-.47,0-.85-.01-1.15-.04-.3-.03-.53-.14-.69-.33s-.25-.46-.25-.82v-3.38Zm-2.81-5.72h4.47v-1.61h-4.47v1.61Zm0,2.42h4.47v-1.6h-4.47v1.6Zm4.47.83h-4.47v1.63h4.47v-1.63Z"/>
          <path class="cls-2" d="m123.15,116.21l-.24-1.01c.58-.1,1.21-.23,1.88-.37v-5.46h-1.47v-.9h1.47v-3.09h1.1v3.09h1.32v.9h-1.32v5.21c.76-.18,1.33-.32,1.73-.45l.08.87c-.89.36-2.4.76-4.55,1.21Zm5.19-5.75l-1.21.35-.2-.91,1.41-.39v-3.56h1.12v3.25l2.25-.62v-3.33h1.14v3.02l3.16-.87.32.24v5.59c0,.4-.13.72-.39.97s-.61.37-1.05.37h-1.25l-.15-.96h1.04c.46,0,.69-.21.69-.62v-4.51l-2.38.69v6.56h-1.14v-6.24l-2.25.64v6.42c0,.37.16.61.47.74.32.12,1.16.19,2.54.19.62,0,1.25-.02,1.91-.06.66-.04,1.06-.08,1.2-.13.14-.05.25-.12.33-.23.08-.11.14-.34.18-.68s.06-.76.06-1.25l1.01.1v1.79c0,.23-.07.43-.2.62-.13.18-.31.33-.54.44-.23.11-.46.18-.71.2s-.68.05-1.28.08-1.22.04-1.84.04c-.34,0-.86-.01-1.55-.03-.69-.02-1.21-.06-1.56-.12-.35-.06-.63-.21-.83-.47-.21-.25-.31-.56-.31-.92v-6.39Z"/>
          <path class="cls-2" d="m151.33,116.58l-.63.97c-1.15-.86-2.62-1.63-4.41-2.29v1.08c0,1.26-1.16,1.89-3.49,1.89-.92,0-1.72-.2-2.39-.6-.67-.4-1-.94-1-1.64s.32-1.29.95-1.71c.63-.42,1.4-.63,2.29-.63s1.76.09,2.46.27v-2.16h-5.55v-.96h5.55v-2.23h-5.94v-.96h5.94v-1.57h1.13v1.57h5.43v.96h-5.43v2.23h4.8v.96h-4.8v2.42c2.25.85,3.94,1.65,5.08,2.4Zm-6.18-.62v-1.03c-.62-.23-1.45-.34-2.48-.34-.54,0-1.03.12-1.49.37-.45.24-.68.57-.68.97,0,.42.23.75.68.97.46.22,1.03.33,1.72.33s1.14-.05,1.43-.16c.3-.11.51-.23.63-.37.12-.14.19-.38.19-.73Z"/>
          <path class="cls-2" d="m166.31,108.17h-3.67c-.89.38-1.76,1.08-2.61,2.09-.85,1.01-1.27,2.07-1.27,3.16,0,.84.22,1.55.67,2.11.45.56,1.05.98,1.8,1.24.75.26,1.75.39,2.99.39.29,0,.58,0,.89-.02l-.07,1.08h-.04c-.9,0-1.65-.02-2.25-.05s-1.22-.15-1.88-.36c-.66-.21-1.24-.52-1.74-.95s-.88-.92-1.12-1.47-.37-1.19-.37-1.89c0-.98.3-1.95.9-2.92.6-.96,1.39-1.78,2.37-2.45h-7.35v-.97h12.75v1Zm-1.82,3.12l-.84.38c-.35-.79-.71-1.48-1.06-2.06l.79-.36c.43.66.8,1.34,1.11,2.04Zm2.13-.45l-.84.34c-.33-.76-.68-1.43-1.05-2.02l.78-.38c.34.53.71,1.21,1.11,2.06Z"/>
          <path class="cls-2" d="m175.59,118l-.29-.99c1.57-.14,2.92-.6,4.03-1.37,1.12-.77,1.67-1.92,1.67-3.46,0-1.37-.45-2.42-1.35-3.17-.9-.75-2.16-1.14-3.77-1.19-.05,2.63-.52,4.82-1.41,6.58s-2,2.64-3.34,2.64c-.83,0-1.48-.35-1.96-1.06-.48-.71-.71-1.57-.71-2.58,0-1.67.72-3.18,2.17-4.52s3.16-2,5.13-2c1.86,0,3.39.47,4.6,1.4,1.21.93,1.81,2.2,1.81,3.81,0,1.84-.61,3.24-1.82,4.21-1.21.97-2.8,1.54-4.76,1.7Zm-.85-10.08c-1.42.21-2.63.86-3.66,1.92-1.02,1.07-1.53,2.27-1.53,3.61,0,.71.15,1.32.45,1.81s.71.74,1.25.74c.91,0,1.71-.85,2.39-2.56.68-1.71,1.05-3.55,1.11-5.53Z"/>
          <path class="cls-2" d="m185.39,118.64v-6.1c-.71.82-1.36,1.46-1.96,1.93l-.62-.72c.87-.8,1.67-1.68,2.39-2.65.72-.97,1.25-1.77,1.57-2.38l1.07.4c-.35.69-.92,1.54-1.72,2.53h.41v6.99h-1.15Zm-1.38-9.3l-.64-.69c1.4-1.09,2.45-2.22,3.17-3.37l1.07.46c-.45.65-1.02,1.32-1.71,2s-1.31,1.21-1.89,1.6Zm3.74,8.92v-.95h4.2v-4.28h-3.5v-.9h3.5v-3.43h-3.61v-.94h4.51c-.54-.62-1.25-1.32-2.12-2.1l.84-.64c.83.68,1.61,1.39,2.34,2.12l-.82.62h3.97v.94h-3.93v3.43h3.54v.9h-3.54v4.28h4.27v.95h-9.65Z"/>
          <path class="cls-2" d="m200,118.64v-6.25c-.52.62-1,1.12-1.45,1.49l-.64-.67c.18-.18.4-.41.65-.69s.51-.56.76-.86c.25-.29.52-.65.81-1.08.29-.42.52-.78.7-1.08.18-.29.32-.57.44-.82l1.04.37c-.39.75-.92,1.57-1.6,2.46h.43v7.13h-1.14Zm-1.3-9.47l-.63-.67c1.35-1.06,2.36-2.15,3.05-3.26l1.04.35c-.89,1.41-2.04,2.6-3.46,3.58Zm5.56,5.65c-.71.45-1.31.79-1.79,1.01l-.52-.67c1.64-.88,2.85-1.74,3.63-2.59h-1.55v-4.28c-.3.37-.58.68-.84.94l-.72-.59c.24-.23.62-.72,1.15-1.45.53-.73.93-1.43,1.2-2.08l1.11.21c-.08.18-.22.47-.42.86h6.66v.84h-7.18c-.22.33-.48.67-.77,1.04h7.02v4.52h-4.28c-.33.4-.68.76-1.07,1.08h5.41l.48.34c-.61,1.01-1.6,1.93-2.97,2.76,1.26.44,2.53.75,3.82.91l-.46.89c-1.46-.19-2.93-.59-4.39-1.21-1.47.69-3.24,1.13-5.31,1.32l-.25-.83c2-.21,3.48-.56,4.43-1.03-.92-.5-1.71-1.16-2.37-1.98Zm.85-4.87h5v-1.13h-5v1.13Zm5,.74h-5v1.13h5v-1.13Zm-2.41,5.62c.88-.47,1.7-1.1,2.45-1.9h-5.02c.7.8,1.55,1.43,2.56,1.9Z"/>
          <path class="cls-2" d="m118.54,139.29h-4.09c-2.29.01-3.79-.03-4.51-.13s-1.33-.28-1.83-.56c-.5-.28-.86-.6-1.07-.98-.81.83-1.61,1.44-2.4,1.82l-.39-.98c.27-.12.65-.34,1.13-.66.49-.32.83-.58,1.02-.77v-4.47h-1.94v-.91h3.09v4.7c0,.46.16.83.48,1.12.32.29.7.49,1.14.59.43.1.84.18,1.22.23s1.49.08,3.32.08c2.36,0,4.04-.03,5.04-.1l-.21,1Zm-11.81-9.75c-.43-.77-1.02-1.6-1.76-2.5l.93-.59c.77.95,1.38,1.77,1.85,2.48l-1.03.61Zm6.5,4c-.71,1.85-2.14,3.11-4.28,3.8l-.41-.81c.99-.33,1.83-.83,2.51-1.52s1.1-1.43,1.24-2.21h-3.58v-.87h3.84v-2.37h-3.43v-.86h1.87c-.17-.34-.51-1.02-1.04-2.05l1.1-.3c.3.6.67,1.38,1.12,2.35h1.96c.24-.43.63-1.22,1.17-2.35l1.15.29c-.31.61-.72,1.3-1.21,2.07h2.15v.86h-3.71v2.37h4.22v.87h-3.94c.69,1.63,2.08,2.87,4.19,3.71l-.63.9c-.72-.27-1.51-.75-2.35-1.42-.85-.67-1.49-1.49-1.94-2.45Z"/>
          <path class="cls-2" d="m133.54,139.29h-4.09c-2.29.01-3.79-.03-4.51-.13s-1.33-.28-1.83-.56c-.5-.28-.86-.6-1.07-.98-.81.83-1.61,1.44-2.4,1.82l-.39-.98c.27-.12.65-.34,1.13-.66.49-.32.83-.58,1.02-.77v-4.47h-1.94v-.9h3.09v4.69c0,.46.16.83.48,1.12.32.29.7.49,1.14.59.43.1.84.18,1.22.23s1.49.08,3.32.08c2.36,0,4.04-.03,5.04-.1l-.21,1Zm-11.81-9.75c-.43-.77-1.02-1.6-1.76-2.5l.93-.59c.77.95,1.38,1.77,1.85,2.48l-1.03.61Zm1.88,6.99l-.23-.97c.34-.07.62-.13.83-.18v-8.02c1.04-.31,2.08-.67,3.09-1.06l.52.75c-.7.32-1.54.6-2.5.86v7.19c.91-.24,1.69-.48,2.34-.71l.07.89c-.42.21-1.79.62-4.13,1.24Zm8.16-.67h-1.4l-.13-.95h.93c.38,0,.56-.16.56-.48v-6.83h-2.17v10.02h-1.12v-10.86h4.39v8.05c0,.3-.11.55-.32.75s-.46.3-.75.3Z"/>
          <path class="cls-2" d="m141.4,134.83c-.17.46-.43,1.03-.79,1.7-.36.67-.72,1.23-1.1,1.67-.37.45-.76.67-1.16.67-.24,0-.46-.06-.65-.18s-.44-.34-.75-.68-.59-.8-.85-1.39c-.26-.59-.45-1.2-.57-1.85-.12-.64-.18-1.27-.18-1.88,0-.55.06-1.32.17-2.32.12-1.05.18-1.82.19-2.3h1.23c-.02.44-.1,1.21-.23,2.3-.12.98-.18,1.75-.18,2.31,0,.85.09,1.61.27,2.29.18.68.44,1.26.78,1.75.34.49.59.73.74.73.25,0,.6-.35,1.03-1.04.43-.7.82-1.45,1.16-2.25l.9.47Zm6.7,2.15l-1.23.04v-.13c0-1.45-.23-2.85-.7-4.22s-1.14-2.59-2.01-3.66l.9-.57c1.99,2.28,3,5.13,3.04,8.55Z"/>
          <path class="cls-2" d="m154.25,126.74c0,.55-.02,1.2-.07,1.96h5.33v.97h-5.41c-.18,1.88-.59,3.74-1.24,5.57s-1.32,3.16-1.99,3.98l-.87-.57c.71-1.01,1.34-2.35,1.91-4.05.56-1.69.91-3.34,1.04-4.94h-2.67v-.97h2.73c.03-.63.04-1.28.04-1.96h1.2Zm8.79,11.95c-.78.13-1.83.2-3.15.2-1.12,0-2-.05-2.63-.14-.64-.09-1.14-.31-1.5-.64-.37-.33-.55-.74-.55-1.22,0-.69.28-1.35.83-1.97l.82.46c-.36.48-.54.94-.54,1.38,0,.3.16.56.5.78.33.22,1.27.33,2.81.33,1.17,0,2.29-.07,3.35-.2l.06,1Zm-.43-7.62l-.02.96c-.24,0-.46-.01-.66-.01-1.75,0-3.67.1-5.76.3l-.07-.97c1.91-.2,3.8-.3,5.66-.3.33,0,.61,0,.85.02Z"/>
          <path class="cls-2" d="m177.92,133.57c-.55,1.95-1.37,3.39-2.44,4.31s-2.46,1.38-4.14,1.38c-.66,0-1.25-.07-1.76-.2-.51-.13-.95-.33-1.32-.59-.37-.26-.66-.59-.88-.98-.22-.39-.36-.82-.42-1.28-.06-.46-.09-1.22-.09-2.28,0-1.8.11-4.01.32-6.64h1.2c-.26,2.51-.39,4.75-.39,6.69,0,.68.02,1.25.05,1.72.03.47.17.9.42,1.29.25.4.63.7,1.12.9s1.12.31,1.85.31c1.32,0,2.42-.37,3.3-1.12s1.59-2.04,2.14-3.9l1.03.38Z"/>
          <path class="cls-2" d="m192.58,137.58l-.63.97c-1.15-.86-2.62-1.63-4.41-2.29v1.08c0,1.26-1.16,1.89-3.49,1.89-.92,0-1.72-.2-2.39-.6-.67-.4-1-.94-1-1.64s.32-1.29.95-1.71c.63-.42,1.4-.63,2.29-.63s1.76.09,2.46.27v-2.16h-5.55v-.96h5.55v-2.23h-5.94v-.96h5.94v-1.57h1.13v1.57h5.43v.96h-5.43v2.23h4.8v.96h-4.8v2.42c2.25.85,3.94,1.65,5.08,2.4Zm-6.18-.62v-1.03c-.62-.23-1.45-.34-2.48-.34-.54,0-1.03.12-1.49.37-.45.24-.68.57-.68.97,0,.42.23.75.68.97.46.22,1.03.33,1.72.33s1.14-.05,1.43-.16c.3-.11.51-.23.63-.37.12-.14.19-.38.19-.73Z"/>
          <path class="cls-2" d="m208.34,129.45h-4.62v2.82c.32.57.48,1.34.48,2.33,0,1.29-.48,2.37-1.43,3.25-.95.88-2.12,1.36-3.52,1.45l-.3-.92c1.17-.08,2.16-.49,2.96-1.21.8-.72,1.2-1.62,1.2-2.69,0-.18,0-.34-.03-.49-.12.57-.41,1.01-.86,1.34s-.99.49-1.62.49c-.71,0-1.32-.23-1.81-.68-.49-.45-.74-1.02-.74-1.7,0-.79.28-1.44.83-1.97.55-.52,1.23-.79,2.04-.79.61,0,1.14.18,1.62.53v-1.77h-7.34v-.96h7.34v-1.75h1.18v1.75h4.62v.96Zm-5.79,2.97c-.28-.55-.86-.83-1.74-.83-.43,0-.81.18-1.15.53s-.5.74-.5,1.18c0,.47.13.85.4,1.14s.62.43,1.08.43c.58,0,1.04-.19,1.38-.56.34-.38.52-.87.54-1.48v-.42Z"/>
          <path class="cls-2" d="m210.28,137.39c0-.53.19-.99.58-1.36s.85-.56,1.4-.56,1.01.19,1.4.56.58.83.58,1.36-.19.99-.58,1.36-.85.56-1.4.56-1.01-.19-1.4-.56-.58-.83-.58-1.36Zm.86,0c0,.31.11.57.33.79.22.22.48.33.79.33s.57-.11.79-.33c.22-.22.33-.48.33-.79s-.11-.57-.33-.79c-.22-.22-.48-.33-.79-.33s-.57.11-.79.33c-.22.22-.33.48-.33.79Z"/>
        </g>
      </g>
    </g>
  </g>
</svg>