<?xml version="1.0" encoding="UTF-8"?>
<svg id="_レイヤー_2" data-name="レイヤー 2" xmlns="http://www.w3.org/2000/svg" viewBox="0 0 318.48 182.58">
  <defs>
    <style>
      .cls-1 {
        fill: #fff;
      }

      .cls-2 {
        fill: #fea47d;
      }
    </style>
  </defs>
  <g id="_レイヤー_1-2" data-name="レイヤー 1">
    <g>
      <rect class="cls-2" width="318.48" height="182.58"/>
      <polygon class="cls-1" points="311.37 162.47 311.37 176.31 297.53 176.31 311.37 162.47"/>
    </g>
    <g>
      <g>
        <path class="cls-1" d="m131.5,82.66c.6-.07.94-.12,1.02-.15.05-.02.1-.08.15-.19v-.07c0-.1.02-.48.05-1.12,0-.18.01-.36.01-.53l-.02-.74v-.84s0-1.55,0-1.55v-1.11c.01-.47-.03-.76-.1-.86-.08-.1-.27-.18-.59-.22-.32-.04-.49-.08-.53-.1-.03-.02-.05-.05-.05-.1,0-.03,0-.07.02-.11.04-.04.14-.06.29-.06.02,0,.08,0,.17-.02s.18-.02.26-.02h.51l1.63-.02c.92,0,1.57.07,1.94.2.37.14.66.37.88.69.22.32.33.69.33,1.09,0,.76-.4,1.34-1.19,1.74-.14.07-.24.13-.32.19.14.3.34.65.59,1.07l.79,1.35c.31.5.53.81.65.93s.27.23.44.31c.17.08.46.16.86.24,0,.04,0,.07,0,.1s0,.06,0,.09c-.57,0-1.23.01-1.99.01-.05,0-.13,0-.22-.01-.29-.56-.64-1.18-1.04-1.86l-.92-1.68c-.12-.17-.23-.28-.31-.33-.08-.04-.19-.07-.32-.07h-.53s-.17,0-.17,0c-.01.13-.02.4-.02.81v2.12c0,.08.01.19.05.33.03.08.09.14.17.19.08.05.31.12.7.21l.25.06s.05.1.05.17c-.11.02-.19.03-.24.03-.37,0-.63,0-.79-.01-.08,0-.14,0-.19,0h-.84s-.82,0-.82,0c-.04,0-.23,0-.56.02l-.12-.02v-.06s.02-.08.07-.13Zm2.3-4.05c.11,0,.19,0,.25,0,.3,0,.64-.04,1.03-.11.27-.05.49-.14.66-.26s.31-.3.42-.54c.11-.24.17-.49.17-.74,0-.28-.09-.58-.27-.89-.14-.24-.37-.44-.69-.6s-.71-.24-1.17-.24c-.11,0-.26,0-.43.02-.02.21-.02.38-.02.49l.03,1.16v.48c0,.32,0,.73.02,1.23Z"/>
        <path class="cls-1" d="m139.39,82.76s.08-.06.1-.07c.07-.02.19-.04.36-.05.4-.02.65-.06.74-.11.06-.08.09-.2.09-.35v-.43s0-1.58,0-1.58v-.74s0-1.56,0-1.56l-.03-1.77c0-.42-.03-.66-.08-.71-.07-.08-.3-.12-.66-.14-.16,0-.29-.02-.42-.04-.05-.03-.08-.07-.08-.11,0-.03,0-.07.03-.12.04-.02.07-.03.1-.03.06,0,.13,0,.21,0,.24.02.5.04.76.04h.46s1.09.01,1.09.01c.55,0,.97,0,1.28-.02.31-.01.51-.02.62-.02.09,0,.33,0,.71.02h.88s.1.01.1.01l.51-.02.06.03s.04.07.04.1c0,.06,0,.15-.03.27s-.03.19-.03.22c0,.43.01.79.04,1.09,0,.02-.02.04-.04.05-.04,0-.08,0-.12-.02-.04-.08-.11-.22-.18-.42-.08-.2-.19-.43-.34-.69-.1-.17-.18-.28-.24-.31-.06-.03-.18-.05-.36-.05-.04,0-.23,0-.56-.01-.09,0-.18,0-.27,0l-1.77.04h-.16c-.23,0-.36.03-.41.09-.07.1-.1.39-.1.87,0,.05,0,.54.03,1.49v.86s.09.02.15.02h.1c.07,0,.17,0,.31,0,.21,0,.36.01.43.01.05,0,.09,0,.13,0,.45-.02,1.02-.02,1.72-.02.22-.04.35-.08.38-.13.06-.07.11-.27.14-.58.03-.31.1-.49.21-.53.05,0,.1.01.15.03,0,.03.01.06.01.09s0,.08-.01.14c-.02.15-.03.63-.03,1.44,0,.21.01.45.03.72.02.26.03.41.03.43,0,.04,0,.09-.02.15-.03.02-.06.02-.08.02h-.04c-.07-.12-.13-.29-.19-.54-.11-.42-.22-.68-.34-.78-.12-.1-.31-.16-.57-.16-.06,0-.16,0-.32,0-.15,0-.38,0-.68,0h-.4c-.57,0-.95.01-1.13.04v.21s0,1.14,0,1.14v.72s0,.7,0,.7c0,.42.03.67.08.73.07.09.22.14.46.14h.38s.16,0,.39,0c.23,0,.5,0,.83,0,.8,0,1.33-.03,1.59-.1.26-.07.48-.19.65-.36.17-.17.39-.55.65-1.12.08-.17.16-.25.24-.25.04,0,.08.02.12.05-.12.41-.19.68-.2.81-.05.29-.07.58-.08.89,0,.14-.03.25-.1.34h-.14l-1.74.02h-.78s-1.86.02-1.86.02h-.76c-.09,0-.18,0-.27,0-.74.03-1.29.05-1.64.05-.06,0-.1-.01-.13-.03s-.03-.05-.03-.09v-.06Z"/>
        <path class="cls-1" d="m150.35,75.18c.64-.32,1.35-.48,2.12-.48s1.41.17,2,.51,1.07.8,1.42,1.36c.44.7.66,1.45.66,2.27,0,.53-.11,1.08-.34,1.65-.23.56-.52,1.03-.88,1.39-.36.36-.72.63-1.1.81-.38.18-.67.28-.89.3-.15.02-.26.05-.33.09.17.2.46.46.87.79s.82.57,1.22.75c.04.01.11.04.2.09.22.11.43.2.63.29l.14.06h.06s.16.07.16.07c.21.09.41.17.59.22,0,.04,0,.07,0,.09v.07s0,.11,0,.11c-.13,0-.21,0-.24,0-.38,0-.82-.07-1.32-.21s-.96-.33-1.38-.57c-.42-.24-.87-.55-1.37-.94-.33-.27-.61-.53-.82-.79-.72-.1-1.38-.35-1.96-.75s-1.02-.89-1.33-1.47c-.31-.59-.46-1.19-.46-1.8,0-.72.19-1.45.57-2.18.38-.73.97-1.31,1.78-1.72Zm1.21,7.62c.23.04.44.06.64.06.45,0,.86-.07,1.22-.21s.65-.32.86-.55c.28-.29.52-.71.72-1.24s.3-1.2.3-2c0-.63-.09-1.21-.28-1.73-.12-.36-.33-.72-.62-1.08s-.59-.63-.9-.8c-.31-.17-.71-.26-1.18-.26-.56,0-1.08.14-1.57.43-.49.29-.89.79-1.22,1.51-.21.45-.31,1.09-.31,1.9,0,.66.11,1.31.34,1.94.23.63.55,1.14.98,1.53.24.23.58.4,1,.51Z"/>
        <path class="cls-1" d="m160.8,74.9c.02.07.03.12.03.16,0,.02,0,.06-.02.11-.11.03-.19.04-.26.04-.03,0-.08,0-.15,0-.07,0-.12,0-.17,0-.19,0-.34.04-.45.11-.07.05-.12.1-.14.18l-.06.71.02,3.07c0,1.12.04,1.82.11,2.1s.19.5.35.68.41.32.75.44c.33.12.66.17.97.17.7,0,1.24-.1,1.61-.3s.64-.48.81-.84c.16-.36.24-.9.24-1.63,0-.02,0-.19-.02-.5v-.18c0-.07,0-.2.01-.39,0-.19.01-.3.01-.34l-.09-1.78c-.03-.6-.06-.95-.1-1.06-.04-.11-.1-.19-.17-.24-.16-.12-.47-.22-.92-.31-.02-.06-.03-.12-.04-.18.16-.02.32-.02.48-.02.17,0,.34,0,.52.02.27.02.42.03.45.03l.98-.03h.19s0,.23,0,.23c-.51.07-.81.14-.91.23-.1.09-.15.25-.15.49,0,.13,0,.41.03.84l.04,1.28v.51s.01.65.01.65c0,.81-.02,1.36-.07,1.66-.07.41-.16.73-.28.97-.12.24-.3.46-.53.65s-.54.35-.93.47c-.39.12-.77.19-1.14.19-.59,0-1.02-.04-1.28-.12-.47-.14-.85-.33-1.13-.56-.28-.23-.47-.46-.58-.69-.14-.31-.22-.75-.22-1.34v-.43l-.02-1.74.02-1.4v-.94c0-.24-.03-.41-.1-.5-.04-.07-.11-.1-.2-.1h-.37c-.27,0-.45-.02-.52-.08-.01-.04-.02-.07-.02-.1,0-.04.01-.07.04-.09.05-.03.1-.05.17-.05h.58s.98,0,.98,0l1.63-.02Z"/>
        <path class="cls-1" d="m166.48,82.76s.08-.06.11-.07c.07-.02.19-.04.36-.05.4-.02.65-.06.74-.11.06-.08.09-.2.09-.35v-.43s0-1.58,0-1.58v-.74s0-1.56,0-1.56l-.03-1.77c0-.42-.03-.66-.08-.71-.07-.08-.3-.12-.66-.14-.16,0-.29-.02-.42-.04-.05-.03-.08-.07-.08-.11,0-.03,0-.07.03-.12.04-.02.07-.03.1-.03.06,0,.13,0,.21,0,.24.02.5.04.76.04h.46s1.09.01,1.09.01c.54,0,.97,0,1.28-.02.31-.01.51-.02.62-.02.09,0,.33,0,.71.02h.88s.11.01.11.01l.51-.02.06.03s.03.07.04.1c0,.06,0,.15-.03.27-.02.12-.03.19-.03.22,0,.43.01.79.04,1.09,0,.02-.02.04-.04.05-.04,0-.08,0-.12-.02-.04-.08-.11-.22-.18-.42-.08-.2-.19-.43-.34-.69-.1-.17-.18-.28-.24-.31-.06-.03-.18-.05-.36-.05-.04,0-.23,0-.56-.01-.09,0-.18,0-.27,0l-1.77.04h-.16c-.23,0-.36.03-.41.09-.07.1-.11.39-.11.87,0,.05,0,.54.03,1.49v.86s.09.02.15.02h.11c.07,0,.17,0,.31,0,.21,0,.36.01.43.01.05,0,.09,0,.13,0,.45-.02,1.02-.02,1.72-.02.22-.04.35-.08.38-.13.06-.07.11-.27.14-.58.03-.31.1-.49.21-.53.05,0,.1.01.15.03,0,.03.01.06.01.09s0,.08-.01.14c-.02.15-.03.63-.03,1.44,0,.21.01.45.04.72.02.26.03.41.03.43,0,.04,0,.09-.02.15-.03.02-.06.02-.08.02h-.04c-.07-.12-.13-.29-.19-.54-.11-.42-.22-.68-.34-.78-.12-.1-.31-.16-.57-.16-.06,0-.16,0-.32,0-.15,0-.38,0-.68,0h-.4c-.57,0-.95.01-1.13.04v.21s0,1.14,0,1.14v.72s0,.7,0,.7c0,.42.03.67.08.73.07.09.22.14.46.14h.38s.16,0,.39,0c.23,0,.5,0,.83,0,.8,0,1.33-.03,1.59-.1.26-.07.48-.19.65-.36.17-.17.39-.55.65-1.12.08-.17.16-.25.24-.25.04,0,.08.02.12.05-.12.41-.19.68-.2.81-.05.29-.07.58-.08.89,0,.14-.03.25-.1.34h-.14l-1.74.02h-.78s-1.86.02-1.86.02h-.76c-.09,0-.18,0-.27,0-.74.03-1.29.05-1.64.05-.06,0-.1-.01-.13-.03-.02-.02-.03-.05-.03-.09v-.06Z"/>
        <path class="cls-1" d="m179.43,75.21c.03.27.05.43.05.47l-.02.55c0,.24-.02.39-.03.45-.04.02-.07.02-.09.02h-.06c-.13-.59-.36-1.01-.67-1.28-.32-.26-.7-.4-1.16-.4s-.86.13-1.16.4c-.3.26-.45.57-.45.92,0,.27.1.51.32.74.21.22.75.56,1.62,1,.66.34,1.13.62,1.42.84.28.22.5.47.64.75s.22.6.22.96c0,.44-.11.86-.34,1.25-.23.39-.54.68-.93.88s-.9.29-1.54.29c-.56,0-1.09-.09-1.6-.27-.3-.11-.49-.19-.55-.26-.07-.07-.1-.14-.1-.21,0-.05,0-.1.01-.17.06-.49.09-.89.09-1.2,0-.19.02-.31.04-.34.02-.03.05-.04.09-.04.04,0,.07.01.09.04.02.03.04.08.05.15.05.51.28.96.71,1.36.42.4.9.6,1.43.6.33,0,.63-.07.9-.2.27-.14.49-.33.64-.59.15-.26.23-.51.23-.75,0-.33-.12-.64-.35-.92-.24-.28-.71-.6-1.42-.97s-1.17-.64-1.39-.81c-.35-.28-.61-.57-.78-.88-.13-.24-.19-.52-.19-.84,0-.57.23-1.06.68-1.46.45-.4,1.06-.6,1.83-.6.42,0,.78.05,1.09.14.22.07.45.2.69.37Z"/>
        <path class="cls-1" d="m180.8,75.85l.25-.94c.02-.12.04-.2.07-.24.03-.04.06-.05.1-.05.07,0,.16.09.25.27.07.13.13.21.17.24.04.04.11.06.2.07h.06s.27.02.27.02l1.46.02h1.73s.51,0,.51,0l.96-.02s.09,0,.16.01c.28.02.45.04.52.04.06,0,.11-.02.15-.06.01-.02.08-.15.2-.41.05-.12.12-.17.2-.17.03,0,.07,0,.12.02.02.08.03.16.03.22v.25s0,.52,0,.52c0,.13,0,.54-.03,1.23,0,.05,0,.09-.02.12-.05.03-.08.04-.12.04s-.06-.02-.09-.05c-.03-.03-.06-.13-.09-.29-.08-.37-.19-.63-.31-.79-.08-.1-.2-.18-.36-.22-.15-.04-.53-.07-1.11-.07h-1.05c0,.17-.01.32-.01.45l.05,3.85c0,.15,0,.44-.03.87v.82s0,.46,0,.46c0,.14.03.25.07.31.05.06.18.12.4.18.38.1.63.15.76.17.08,0,.14.02.19.05v.19l-.88-.02c-.48,0-.85-.01-1.09-.03l-.9.04-.66.04c-.19,0-.3,0-.34-.01l-.09-.04c0-.1.03-.16.06-.18.03-.03.1-.05.23-.06.17-.02.38-.07.61-.13.23-.06.39-.13.46-.19.04-.04.07-.1.09-.19.04-.18.06-.54.06-1.07v-1.05l-.02-2.3-.03-.5v-1.65h-1c-.59,0-.96.04-1.08.11-.2.11-.5.44-.9.99-.13.2-.25.31-.35.31h-.06s-.03-.06-.03-.08c0-.05.03-.2.1-.45.08-.32.13-.53.15-.64Z"/>
      </g>
      <g>
        <path class="cls-1" d="m126.1,59.26c.65.51,1.72,1.37,3.74,1.37,1.37,0,4.18-.6,4.18-3.32s-2.49-3.04-3.44-3.04c-1.39,0-4,.65-6.39,2.28.05.79.07,1.6.09,2.42,0,.21.14,1.56.14,1.81,0,1.44-.77,2.48-1.23,2.48-.28,0-.39-.16-.74-.65-.16-.23-.37-.49-.91-.95-.12-.09-.81-.63-1.51-1.14-.42.63-.65.86-.95.86-.51,0-1.3-.53-1.65-1.04-.23-.37-.21-.81-.19-1.11.79.58.81.6,1.04.6.14,0,.19-.02.56-.33,1.37-1.04,3.04-2.21,4.32-3.09,0-.51-.05-2.76-.05-3.23,0-.21.02-1.11.05-1.67-.58.19-1.62.51-2.51.51-.58,0-1.79-.49-2.09-1.67.56.44.88.7,2.04.7.74,0,2.09-.46,2.58-.65.02-.37.09-2.07.09-2.39,0-.56-.05-2.11-.25-2.53q-.12-.26-1.25-.86c.26-.12.44-.21.98-.21.98,0,2.3.56,2.3,1.25,0,.21-.05.37-.16.74-.25.74-.49,1.63-.65,3.6,1.37-.58,1.63-.79,1.88-1,.46-.37.56-.37.86-.37.72,0,1.02.3,1.02.56s-.14.42-.56.6c-.19.07-2.25.98-3.27,1.37-.05,1.11-.07,2.09-.07,2.49,0,.28.02.81.07,2.14,2.04-1.28,4.25-2.37,6.67-2.37,2.07,0,4.69,1.02,4.69,3.88s-2.46,4.41-5.11,4.41-3.55-1.18-4.44-2.37l.12-.07Zm-2.88.05c0-.93,0-1.05-.02-2.04-1.11.88-2.16,1.88-3,3.04.26.12,1.46.63,1.74.77.46.21.58.26.77.26.44,0,.51-.44.51-1.35v-.67Zm8.38-7.92c.3-.16.67-.37,1.49-1.07.44-.39.53-.51.53-.72,0-.74-1.53-1.44-3.27-2.21.21-.05.37-.09.67-.09,3.9,0,4.76,2.55,4.76,3.58,0,.49-.37.51-.42.51-.25,0-.53-.14-.58-.16-.49-.23-.67-.28-.98-.28-.56,0-1.14.19-2.21.56v-.12Z"/>
        <path class="cls-1" d="m147.12,45.7c-.05.51-.07,1.02-.07,1.79,0,.6.14,3.27.14,3.83,0,.33,0,1.09-.91,1.09-.46,0-.44-.16-.42-.91h-4.67c0,1.21.05,3.14.05,4.34v5.36c0,.3.05,1.67.05,1.95,0,.16,0,.42-.14.63-.21.28-.6.46-.88.46-.51,0-.51-.4-.51-.6,0-.05.09-.12.21-6.53.12-6.06.05-6.73.05-7.22,0-1.23,0-4.37-.19-5.43-.02-.19-.05-.26-.19-.86l1.81.81h4.27l.28-.35c.12-.12.16-.19.3-.19.07,0,.09,0,.28.14l1.02.67c.12.09.16.16.16.28,0,.23-.19.37-.65.72Zm-1.25-.72h-4.67v2.62h4.67v-2.62Zm0,3.18h-4.67v2.79h4.67v-2.79Zm6.48,7.22c-.05,1.44-.02,2.86.02,4.3.02,1.23-.67,1.28-.86,1.28-.16,0-.46-.09-.46-.49,0-.26,0-.58.05-.81h-5.09c0,.14.02.7,0,.81,0,.05-.19.86-.86.86-.42,0-.46-.23-.46-.46,0-.02.05-.49.05-.56.07-1.35.07-3.27.07-3.55,0-1.02,0-2.46-.16-3.09l1.49.7h4.81l.37-.4c.16-.19.21-.26.3-.26s.16.05.33.16l.86.58c.14.09.21.14.21.23,0,.23-.33.46-.65.7Zm-1.23-.46h-5.11v4.18h5.11v-4.18Zm6.8-9.22c-.02.6-.05,5.76-.05,7.08,0,1.51,0,3,.05,4.09.05,1.81.07,3.3.07,3.69,0,2.46,0,2.97-2.42,3.74-.33-1.02-.56-1.28-2.18-2.07v-.12c.56.02,1.23.07,1.93.07.95,0,1.05,0,1.25-.19.12-.14.14-.16.14-1.6s-.09-7.62-.02-8.89h-4.85c-.05.21-.16.84-.88.84-.14,0-.46,0-.46-.53,0-1.58.14-4.11.14-5.69,0-.93-.14-2.11-.21-2.46l1.56.81h4.58l.35-.44c.09-.12.19-.21.3-.21s.28.12.37.19l.95.72c.12.09.19.14.19.26,0,.19-.53.56-.79.72Zm-1.23-.67h-4.85v2.58h4.85v-2.58Zm0,3.14h-4.85v2.79h4.85v-2.79Z"/>
        <path class="cls-1" d="m180.3,53.13c-3.97-1.74-7.36-5.25-8.96-8.38h-.12c-3.92,5.23-6.67,8.31-10.68,10.2l-.14-.19c3.58-2.28,6.9-6.92,8.29-8.9.63-.86,1.21-1.7,1.49-2.79l1.86.79c.19.07.23.16.23.28,0,.28-.21.49-.49.56,1.76,2.88,6.25,6.18,10.57,6.78v.19c-.51.14-1.63.7-2.04,1.46Zm-3.46,4.16c-.05,1.35-.05,3.41.02,4.51,0,.19.09.93.09,1.09,0,.6-.77.79-1.02.79-.35,0-.44-.21-.44-.44,0-.07.02-.42.05-.53h-8.62c0,.23,0,.65-.02.7-.07.28-.56.6-1.02.6-.23,0-.44-.14-.44-.42,0-.16.07-.91.07-1.04.07-1.63.12-3.44.12-5.06,0-.81,0-1.18-.14-2.16l1.72.81h8.29l.44-.51c.12-.16.19-.21.3-.21.09,0,.19.07.33.19l.77.7c.21.19.25.26.25.33,0,.19-.07.23-.74.67Zm-.74-4.25h-6.73c-.81,0-2.11.09-3,.28l-.53-1.02c1.74.16,3.41.19,3.86.19h3.99l.7-.81c.16-.19.23-.3.35-.3.14,0,.4.21.44.26l1.04.81c.12.09.23.21.23.35,0,.23-.19.26-.35.26Zm-.56,3.65h-8.64v5.46h8.64v-5.46Z"/>
        <path class="cls-1" d="m192.52,55.43l.21.05c2.39.53,2.44.65,2.72.65.67,0,.88-.49.98-.79.16-.58.33-3.16.37-3.95-2.32.37-4.53.93-6.32,1.37-.12,2.32-.12,2.58-.12,3.04,0,4.25,1.02,5.39,4.99,5.39,1.53,0,3.21-.26,3.55-.32.6-.14.67-.12.86-.12.6,0,1.28.39,1.28.88,0,.37-.3.49-.42.53-.53.14-2.53.16-3.23.16-2.39,0-6.32,0-7.5-3.09-.49-1.25-.58-2.58-.58-6.15-2.07.6-2.49.86-3.14,1.25-.49.3-.6.37-.91.37-.4,0-2.16-.81-2.04-2.46.67.63,1.35.98,1.93.98.19,0,.42-.02,1.07-.21,1.49-.44,2.62-.72,3.09-.84,0-.77,0-2.97-.26-3.48-.21-.46-.74-.79-1.28-1.05.21-.16.3-.21.77-.21,1.14,0,2.21.7,2.21,1.14,0,.07-.02.35-.09.63-.09.42-.12,2.3-.14,2.69,2.09-.51,4.18-.95,6.29-1.3.02-1.02.07-3.85-.28-4.74-.28-.74-1.37-1.04-1.79-1.16.28-.12.72-.3,1.37-.3s2.09.46,2.09,1.32c0,.07-.12.74-.14.79-.12.7-.16,3.04-.19,3.92.56-.09,3.09-.49,3.6-.6.39-.07,1.09-.23,1.32-.23.39,0,1.39.14,1.39.72,0,.63-.58.63-.88.63-.21,0-1.11-.02-1.3-.02-.84,0-2.18.09-4.16.33-.02,1.42-.21,4.23-.7,5.39-.49,1.14-1.18,1.28-1.39,1.28s-.26-.05-.7-.49c-.84-.84-2.51-1.86-2.58-1.9l.02-.09Z"/>
      </g>
      <g>
        <path class="cls-1" d="m125.94,118.55l-.37-.81c.62-.1,1.37-.27,2.25-.53.88-.25,1.54-.49,1.97-.71l.75.69c-.54.27-1.27.54-2.21.81-.94.27-1.73.46-2.39.55Zm.38-8.39l-.66-.64c.96-.56,1.83-1.2,2.61-1.93l.75.44c-.7.75-1.6,1.46-2.71,2.12Zm2.09-3.26c-.44-.26-1.1-.58-1.99-.94l.6-.66c.56.19,1.23.49,2.01.9l-.62.7Zm-1.41,9.46v-5.71h10.85v5.71h-10.85Zm1.08-4.06h8.64v-.92h-8.64v.92Zm0,1.6h8.64v-.94h-8.64v.94Zm8.64.67h-8.64v1.01h8.64v-1.01Zm-2.64-7.95c-.01.15-.03.28-.05.4.13.49.6.98,1.4,1.47.8.49,2.08.89,3.86,1.19l-.44.82c-1.5-.28-2.64-.62-3.43-1.01-.79-.39-1.37-.85-1.75-1.39-.37.61-1.03,1.11-2,1.51s-1.95.63-2.95.68l-.2-.75c1.39-.15,2.48-.48,3.27-.99s1.18-1.13,1.18-1.88v-.06h-1.54c-.58.59-1.07,1-1.47,1.22l-.63-.52c.45-.34.9-.75,1.34-1.22.45-.47.76-.87.96-1.22l1.07.2c-.22.32-.41.58-.58.78h6.21l.24.37c-.56.82-1.15,1.47-1.77,1.97l-.74-.38c.29-.27.62-.68,1.01-1.21h-2.98Zm4.53,11.93c-2.12-.42-3.67-.86-4.65-1.33l.67-.72c1.31.52,2.82.91,4.51,1.16l-.54.89Z"/>
        <path class="cls-1" d="m140.86,116.39l-.72-.61c.39-.42.89-1.13,1.49-2.15s1.04-1.92,1.32-2.7h-2.42v-.89h2.66v-4.77h1.11v4.77h2.04v.89h-2.04v.53c.37.47,1.08,1.13,2.14,1.96l-.59.92c-.54-.45-1.06-.94-1.54-1.49v5.65h-1.11v-5.65c-.74,1.44-1.52,2.61-2.34,3.54Zm.48-7.22c-.1-.78-.26-1.78-.48-3l1.04-.14.48,3-1.04.13Zm4.77-.03l-.93-.09.56-3.02,1.04.12-.67,2.98Zm.43,6.2l-.03-.97,5.06-.61v-8.59h1.18v8.44l1.42-.17v.98l-1.42.17v3.76h-1.18v-3.62l-5.03.6Zm2.74-2.39c-.63-.9-1.38-1.87-2.25-2.91l.78-.65c.75.82,1.54,1.75,2.37,2.8l-.9.76Zm.89-3.57c-.59-.79-1.35-1.74-2.26-2.83l.84-.64c1.02,1.11,1.77,2.03,2.26,2.74l-.84.74Z"/>
        <path class="cls-1" d="m155.5,108.5v-.83h4.9v.83h-4.9Zm1.33,9.35v.55h-.98v-4.71h4.13v4.16h-3.15Zm-.8-11.34v-.84h3.98v.84h-3.98Zm.02,3.96v-.81h3.88v.81h-3.88Zm0,1.98v-.86h3.88v.86h-3.88Zm2.89,2.04h-2.05v2.54h2.05v-2.54Zm1.84-4.16v-.79h3.46v-1.11h-2.92v-.76h2.92v-1.03h-3.25v-.81h3.25v-.75h1.15v.75h3.44v.81h-3.44v1.03h3.13v.76h-3.13v1.11h3.71v.79h-8.32Zm6.53,5.45h-4.76v2.7h-1.13v-7.21h6.99v6.15c0,.29-.11.53-.33.7-.22.18-.49.26-.81.26h-1.52l-.11-.97h1.12c.37,0,.55-.16.55-.47v-1.16Zm0-2.67v-1.07h-4.76v1.07h4.76Zm-4.76,1.88h4.76v-1.13h-4.76v1.13Z"/>
        <path class="cls-1" d="m170.63,116.78l-.42-1.01c.71-.22,1.64-.58,2.79-1.08,1.15-.49,2.06-.92,2.73-1.28l.27.92c-.38.25-1.14.65-2.31,1.18-1.16.53-2.18.95-3.06,1.27Zm5.87,1.68h-2.05l-.17-1.04h1.75c.41,0,.61-.19.61-.57v-8.29h-5.86v-.94h5.86v-2.67h1.18v2.67h3.82c-.31-.34-.93-.93-1.86-1.77l.77-.61c.48.37,1.14.95,1.98,1.73l-.8.64h2.36v.94h-6.27v.67l.09.29c.23.76.83,1.72,1.79,2.86,1.12-.84,2.11-1.71,2.98-2.59l.9.7c-.91.88-2,1.74-3.26,2.59,1.31,1.42,2.67,2.58,4.07,3.49l-.81.86c-1.31-.92-2.47-1.92-3.48-3.01-1.01-1.09-1.77-2.12-2.28-3.1v5.95c0,.33-.14.61-.42.84-.28.23-.58.34-.9.34Zm-2.72-5.51c-.5-.88-1.15-1.83-1.94-2.83l.98-.53c.89,1.15,1.56,2.08,2,2.8l-1.04.57Z"/>
        <path class="cls-1" d="m191.23,117.97l-1.16.23c-.37-1.65-1.03-4.29-1.96-7.93-.93.26-1.83.52-2.69.78l-.2-1,2.63-.75c-.35-1.33-.67-2.46-.95-3.37l1.17-.26.89,3.33c1.38-.37,2.58-.66,3.61-.88-.45-.67-.87-1.25-1.25-1.76l.92-.48c.3.36.79,1.03,1.46,2.02.88-.16,1.56-.23,2.06-.23,1.03,0,1.85.29,2.48.87.63.58.94,1.36.94,2.33s-.35,1.8-1.06,2.42c-.71.62-1.7.93-2.97.93-.69,0-1.34-.06-1.96-.18l.03-.94c.5.09,1.05.13,1.64.13.46,0,.86-.03,1.21-.09.35-.06.68-.19.98-.39.31-.2.54-.46.71-.77s.25-.66.25-1.05c0-.71-.2-1.27-.6-1.68-.4-.41-.95-.62-1.67-.62-.34,0-.83.06-1.46.17.32.5.61,1.01.87,1.52l-1.06.45c-.16-.4-.48-.98-.96-1.74-1.09.24-2.4.56-3.93.97l2.01,8.01Z"/>
        <path class="cls-1" d="m95.37,129.55v-.86h4.97v.86h-4.97Zm1.41,9.29v.49h-1.07v-4.56h4.22v4.07h-3.15Zm-.89-11.31v-.87h4.06v.87h-4.06Zm.01,4.02v-.83h3.98v.83h-3.98Zm0,1.98v-.86h3.98v.86h-3.98Zm2.94,2.05h-2.07v2.43h2.07v-2.43Zm1.65.52v-.9h3.78v-2.5h-3.16v-.87h3.16v-2.37h-3.21v-.87h1.73l-1-2.09,1.04-.28c.43.9.8,1.69,1.11,2.37h1.9l1.08-2.4,1.1.26-1.1,2.14h2.2v.87h-3.69v2.37h3.17v.87h-3.16v2.5h3.82v.9h-3.81v3.35h-1.18v-3.35h-3.78Z"/>
        <path class="cls-1" d="m111.1,138.19l-.92-.2c.4-1.18.65-2.39.75-3.64l1,.09c-.07.62-.19,1.33-.36,2.12s-.33,1.33-.47,1.63Zm1.66,1.32v-6.31l-2.34.2-.14-.9,1.15-.05c.34-.45.69-.94,1.05-1.44-.06-.07-.8-.83-2.2-2.27l.72-.64.35.34c.55-.77,1.05-1.59,1.5-2.48l1,.4c-.55.94-1.17,1.85-1.85,2.73.42.43.78.8,1.05,1.1.7-1.04,1.19-1.84,1.47-2.4l1.03.42c-.95,1.45-1.96,2.84-3.02,4.18,1-.06,1.76-.11,2.31-.17-.12-.36-.24-.7-.37-1.03l.89-.26c.23.61.51,1.42.84,2.42l-.91.24c-.04-.15-.11-.35-.2-.61-.24.03-.65.07-1.22.12v6.41h-1.12Zm2.31-2.34l-.38-2.72.92-.1c.1.69.25,1.58.45,2.67l-.98.15Zm7.53,1.39h-4.9v.8h-1.07v-12.53h7.05v12.53h-1.08v-.8Zm-3-10.89h-1.9v4.42h1.9v-4.42Zm-1.9,10.02h1.9v-4.77h-1.9v4.77Zm4.9-5.6v-4.42h-1.95v4.42h1.95Zm-1.95,5.6h1.95v-4.77h-1.95v4.77Z"/>
        <path class="cls-1" d="m126.47,128.96c-.02.62-.08,1.38-.2,2.27s-.23,1.55-.37,1.97l-.92-.18c.29-1.05.47-2.43.54-4.13l.94.07Zm1.85,10.52h-1.05v-13.33h1.05v13.33Zm1.82-9.69l-.78.23-.55-1.93.78-.18.55,1.88Zm9.18,1.64h-9.35v-.84h3.95v-1.07h-3.26v-.8h3.26v-.97h-3.76v-.81h3.76v-.89h1.14v.89h3.98v.81h-3.98v.97h3.51v.8h-3.51v1.07h4.26v.84Zm-2.05,5.46h-5.46v2.6h-1.08v-7.1h7.67v6c0,.27-.12.5-.37.69-.25.19-.51.28-.78.28h-1.59l-.12-.95h1.18c.15,0,.28-.05.39-.14.11-.09.17-.19.17-.3v-1.07Zm0-2.67v-1.07h-5.46v1.07h5.46Zm-5.46,1.9h5.46v-1.13h-5.46v1.13Z"/>
        <path class="cls-1" d="m143.19,139.49v-2.94h-2.72v-.86h2.72v-1.71h-2.74v-.83h1.6l-.68-2.45h-.83v-.86h2.68v-1.55h-2.25v-.82h2.25v-1.26h1.13v1.26h2.23v.82h-2.23v1.55h2.51v.86h-.64l-.79,2.45h1.48v.83h-2.57v1.71h2.31v.86h-2.31v2.94h-1.14Zm-.15-6.35h1.41l.69-2.45h-2.78l.67,2.45Zm4.55,6.3v-12.85h5.86v3c0,.29-.13.53-.38.73-.25.2-.55.3-.89.3h-1.67l-.15-.9h1.33c.44,0,.66-.18.66-.53v-1.75h-3.64v4.37h5.23c-.02,1.82-.57,3.47-1.64,4.95.63.69,1.36,1.31,2.19,1.85l-.7.8c-.8-.57-1.5-1.2-2.1-1.88-.72.81-1.46,1.41-2.2,1.81l-.49-.69c.73-.43,1.42-1.05,2.08-1.87l-.03-.04c-.37-.46-.72-1.04-1.03-1.74-.32-.7-.53-1.48-.65-2.35h-.65v6.8h-1.12Zm4.06-3.48c.71-1.1,1.09-2.21,1.15-3.33h-2.5c.15,1.18.6,2.29,1.35,3.33Z"/>
        <path class="cls-1" d="m158.27,138.71l-1.09.24c-.5-1.61-.75-3.35-.75-5.23,0-2.05.33-4.26,1-6.64l1.12.2c-.67,2.21-1,4.31-1,6.31,0,1.77.24,3.47.72,5.11Zm11.22-1.48l-.66.9c-.47-.43-1.32-1.04-2.53-1.82v.45c0,.74-.25,1.3-.74,1.67-.49.37-1.32.55-2.5.55-.8,0-1.48-.19-2.05-.58-.57-.39-.85-.9-.85-1.55s.27-1.2.81-1.62c.54-.41,1.2-.62,1.96-.62s1.48.09,2.2.27v-4.33h-5.15v-.99h5.15v-2.69h1.15v2.69h2.73v.99h-2.73v4.73c1.14.46,2.21,1.11,3.21,1.94Zm-4.29-.47v-.89c-.59-.25-1.33-.37-2.24-.37-.51,0-.92.12-1.25.35-.32.23-.49.54-.49.94s.19.7.56.93.82.33,1.34.33c1.38,0,2.07-.43,2.07-1.29Z"/>
        <path class="cls-1" d="m183.47,138.41c-1.46.22-3.1.34-4.93.34h-.86c-2.31,0-3.88-.23-4.7-.7-.82-.47-1.23-1.14-1.23-2.01,0-1.06.5-2.03,1.5-2.91l.8.59c-.79.78-1.19,1.52-1.19,2.23,0,.62.36,1.07,1.07,1.34.71.27,2.16.41,4.35.41,1.7,0,3.37-.12,5.01-.37l.18,1.08Zm-.51-9.31c-.25.05-.53.14-.85.26-.32.12-.58.23-.79.33s-1.02.51-2.43,1.22l-.52-.73c.49-.26,1.23-.65,2.23-1.16l-.03-.15c-1.75.03-4.37.11-7.87.24l-.06-1.03c1.93-.07,4.57-.11,7.93-.11,1.07,0,1.78,0,2.13.02l.26,1.1Z"/>
        <path class="cls-1" d="m189.26,139l-.04-1.05c.93.1,1.9.15,2.92.15,1.45,0,2.64-.22,3.58-.69.94-.46,1.4-1.14,1.4-2.01,0-.48-.08-.86-.23-1.14s-.47-.53-.93-.78c-.47-.25-1.1-.37-1.89-.37-1.02,0-2.09.2-3.21.59-1.13.39-2,.88-2.63,1.48l-.73-.72c.98-1.25,1.64-2.78,1.99-4.56h-3.69v-.97h3.85c.12-.85.18-1.56.18-2.15h1.2c-.03.76-.09,1.47-.17,2.15h8.12v.97h-8.28c-.21,1.22-.65,2.37-1.32,3.46.63-.34,1.39-.62,2.27-.83s1.71-.31,2.48-.31c1.21,0,2.21.28,3,.83.79.55,1.18,1.32,1.18,2.3,0,1.25-.54,2.19-1.63,2.82-1.08.64-2.6.96-4.55.96-1.08,0-2.04-.04-2.86-.12Z"/>
        <path class="cls-1" d="m204.31,139.14l-.15-1c3.13-.04,5.25-.31,6.34-.82s1.63-1.22,1.63-2.14c0-.81-.28-1.43-.85-1.86-.57-.44-1.33-.66-2.3-.66-1.15,0-2.34.25-3.57.76-1.23.5-2.16,1.15-2.81,1.93l-.96-.56c.63-1.63.99-3.62,1.06-5.95l1.19.03c-.03,1.32-.3,2.9-.79,4.74.67-.55,1.56-1.01,2.66-1.37,1.11-.36,2.14-.54,3.09-.54,1.42,0,2.52.3,3.3.89.79.6,1.18,1.46,1.18,2.59,0,1.25-.64,2.22-1.92,2.92-1.28.7-3.54,1.04-6.77,1.04h-.33Zm7.66-10.47l-.57.96c-.36-.17-.89-.36-1.61-.58-.72-.22-1.46-.44-2.25-.64-.78-.21-1.99-.45-3.61-.74l.33-.93c1.78.3,3.37.64,4.79,1.03s2.39.69,2.92.9Z"/>
        <path class="cls-1" d="m223.11,127.53l-.2,8.03h-1.14l-.21-8.03h1.55Zm-.03,11.04h-1.49v-1.55h1.49v1.55Z"/>
      </g>
    </g>
  </g>
</svg>